<?xml version="1.0" encoding="utf-8"?>
<!-- Generator: Adobe Illustrator 16.0.0, SVG Export Plug-In . SVG Version: 6.00 Build 0)  -->
<!DOCTYPE svg PUBLIC "-//W3C//DTD SVG 1.1//EN" "http://www.w3.org/Graphics/SVG/1.1/DTD/svg11.dtd">
<svg version="1.1" id="Layer_1" xmlns="http://www.w3.org/2000/svg" xmlns:xlink="http://www.w3.org/1999/xlink" x="0px" y="0px"
	 width="1400px" height="980px" viewBox="0 0 1400 980" enable-background="new 0 0 1400 980" xml:space="preserve">
<g>
	<g>
		<g>
			<rect fill="#FFFFFF" width="1400" height="980"/>
		</g>
	</g>
	<g>
		<path fill="#6EE6E0" d="M1046.2,490c0,195.9-158.8,354.7-354.7,354.7c-195.9,0-354.7-158.8-354.7-354.7
			c0-195.9,158.8-354.7,354.7-354.7C887.4,135.3,1046.2,294.1,1046.2,490z"/>
		<path d="M691.5,847.3c-197,0-357.3-160.3-357.3-357.3c0-197,160.3-357.3,357.3-357.3c197,0,357.3,160.3,357.3,357.3
			C1048.8,687,888.5,847.3,691.5,847.3z M691.5,137.9c-194.2,0-352.1,158-352.1,352.1c0,194.2,158,352.1,352.1,352.1
			c194.2,0,352.1-158,352.1-352.1C1043.6,295.8,885.7,137.9,691.5,137.9z"/>
	</g>
	<g>
		<g>
			<polygon fill="#FFFFFF" points="599.9,455.7 683,495.4 766.1,455.7 683,416 			"/>
			<path d="M683,498c-0.4,0-0.8-0.1-1.1-0.3l-83.1-39.7c-0.9-0.4-1.5-1.3-1.5-2.3s0.6-1.9,1.5-2.3l83.1-39.7c0.7-0.3,1.5-0.3,2.2,0
				l83.1,39.7c0.9,0.4,1.5,1.3,1.5,2.3s-0.6,1.9-1.5,2.3l-83.1,39.7C683.8,497.9,683.4,498,683,498z M605.9,455.7l77.1,36.8
				l77.1-36.8L683,418.9L605.9,455.7z"/>
		</g>
		<g>
			<polygon fill="#FFFFFF" points="599.9,455.7 599.9,556.1 683,595.8 683,495.4 			"/>
			<path d="M683,598.4c-0.4,0-0.8-0.1-1.1-0.3l-83.1-39.7c-0.9-0.4-1.5-1.3-1.5-2.3V455.7c0-0.9,0.5-1.7,1.2-2.2
				c0.7-0.5,1.7-0.5,2.5-0.1l83.1,39.7c0.9,0.4,1.5,1.3,1.5,2.3v100.4c0,0.9-0.5,1.7-1.2,2.2C684,598.3,683.5,598.4,683,598.4z
				 M602.5,554.5l77.9,37.2v-94.7l-77.9-37.2V554.5z"/>
		</g>
		<g>
			<polygon fill="#FFFFFF" points="683,595.8 766.1,556.1 766.1,455.7 683,495.4 			"/>
			<path d="M683,598.4c-0.5,0-1-0.1-1.4-0.4c-0.8-0.5-1.2-1.3-1.2-2.2V495.4c0-1,0.6-1.9,1.5-2.3l83.1-39.7c0.8-0.4,1.7-0.3,2.5,0.1
				c0.8,0.5,1.2,1.3,1.2,2.2v100.4c0,1-0.6,1.9-1.5,2.3l-83.1,39.7C683.8,598.3,683.4,598.4,683,598.4z M685.6,497.1v94.7l77.9-37.2
				v-94.7L685.6,497.1z"/>
		</g>
	</g>
	<g>
		<g>
			<polygon fill="#FFFFFF" points="599.9,289.7 683,329.4 766.1,289.7 683,250 			"/>
			<path d="M683,332c-0.4,0-0.8-0.1-1.1-0.3L598.8,292c-0.9-0.4-1.5-1.3-1.5-2.3c0-1,0.6-1.9,1.5-2.3l83.1-39.7
				c0.7-0.3,1.5-0.3,2.2,0l83.1,39.7c0.9,0.4,1.5,1.3,1.5,2.3c0,1-0.6,1.9-1.5,2.3l-83.1,39.7C683.8,331.9,683.4,332,683,332z
				 M605.9,289.7l77.1,36.8l77.1-36.8L683,252.8L605.9,289.7z"/>
		</g>
		<g>
			<polygon fill="#FFFFFF" points="599.9,289.7 599.9,390.1 683,429.8 683,329.4 			"/>
			<path d="M683,432.4c-0.4,0-0.8-0.1-1.1-0.3l-83.1-39.7c-0.9-0.4-1.5-1.3-1.5-2.3V289.7c0-0.9,0.5-1.7,1.2-2.2
				c0.7-0.5,1.7-0.5,2.5-0.1l83.1,39.7c0.9,0.4,1.5,1.3,1.5,2.3v100.4c0,0.9-0.5,1.7-1.2,2.2C684,432.3,683.5,432.4,683,432.4z
				 M602.5,388.5l77.9,37.3V331l-77.9-37.2V388.5z"/>
		</g>
		<g>
			<polygon fill="#FFFFFF" points="683,429.8 766.1,390.1 766.1,289.7 683,329.4 			"/>
			<path d="M683,432.4c-0.5,0-1-0.1-1.4-0.4c-0.8-0.5-1.2-1.3-1.2-2.2V329.4c0-1,0.6-1.9,1.5-2.3l83.1-39.7c0.8-0.4,1.7-0.3,2.5,0.1
				c0.8,0.5,1.2,1.3,1.2,2.2v100.4c0,1-0.6,1.9-1.5,2.3l-83.1,39.7C683.8,432.3,683.4,432.4,683,432.4z M685.6,331v94.7l77.9-37.3
				v-94.7L685.6,331z"/>
		</g>
	</g>
	<g>
		<g>
			<polygon fill="#FFFFFF" points="467.8,518.4 550.9,558.1 633.9,518.4 550.9,478.7 			"/>
			<path d="M550.9,560.7c-0.4,0-0.8-0.1-1.1-0.3l-83.1-39.7c-0.9-0.4-1.5-1.3-1.5-2.3c0-1,0.6-1.9,1.5-2.3l83.1-39.7
				c0.7-0.3,1.5-0.3,2.2,0l83.1,39.7c0.9,0.4,1.5,1.3,1.5,2.3c0,1-0.6,1.9-1.5,2.3L552,560.4C551.6,560.6,551.3,560.7,550.9,560.7z
				 M473.8,518.4l77.1,36.8l77.1-36.8l-77.1-36.9L473.8,518.4z"/>
		</g>
		<g>
			<polygon fill="#FFFFFF" points="467.8,518.4 467.8,618.8 550.9,658.5 550.9,558.1 			"/>
			<path d="M550.9,661.1c-0.4,0-0.8-0.1-1.1-0.3l-83.1-39.7c-0.9-0.4-1.5-1.3-1.5-2.3V518.4c0-0.9,0.5-1.7,1.2-2.2
				c0.8-0.5,1.7-0.5,2.5-0.1l83.1,39.7c0.9,0.4,1.5,1.3,1.5,2.3v100.4c0,0.9-0.5,1.7-1.2,2.2C551.8,661,551.4,661.1,550.9,661.1z
				 M470.4,617.2l77.9,37.2v-94.7l-77.9-37.2V617.2z"/>
		</g>
		<g>
			<polygon fill="#FFFFFF" points="550.9,658.5 633.9,618.8 633.9,518.4 550.9,558.1 			"/>
			<path d="M550.9,661.1c-0.5,0-1-0.1-1.4-0.4c-0.8-0.5-1.2-1.3-1.2-2.2V558.1c0-1,0.6-1.9,1.5-2.3l83.1-39.7
				c0.8-0.4,1.7-0.3,2.5,0.1c0.8,0.5,1.2,1.3,1.2,2.2v100.4c0,1-0.6,1.9-1.5,2.3L552,660.8C551.6,661,551.3,661.1,550.9,661.1z
				 M553.5,559.7v94.7l77.9-37.2v-94.7L553.5,559.7z"/>
		</g>
	</g>
	<g>
		<g>
			<polygon fill="#FFFFFF" points="749.1,527.2 832.2,567 915.2,527.2 832.2,487.5 			"/>
			<path d="M832.2,569.5c-0.4,0-0.8-0.1-1.1-0.3L748,529.6c-0.9-0.4-1.5-1.3-1.5-2.3s0.6-1.9,1.5-2.3l83.1-39.7
				c0.7-0.3,1.5-0.3,2.2,0l83.1,39.7c0.9,0.4,1.5,1.3,1.5,2.3s-0.6,1.9-1.5,2.3l-83.1,39.7C832.9,569.5,832.5,569.5,832.2,569.5z
				 M755.1,527.2l77.1,36.8l77.1-36.8l-77.1-36.9L755.1,527.2z"/>
		</g>
		<g>
			<polygon fill="#FFFFFF" points="749.1,527.2 749.1,627.7 832.2,667.4 832.2,567 			"/>
			<path d="M832.2,670c-0.4,0-0.8-0.1-1.1-0.3L748,630c-0.9-0.4-1.5-1.3-1.5-2.3V527.2c0-0.9,0.5-1.7,1.2-2.2
				c0.7-0.5,1.7-0.5,2.5-0.1l83.1,39.7c0.9,0.4,1.5,1.3,1.5,2.3v100.4c0,0.9-0.5,1.7-1.2,2.2C833.1,669.8,832.6,670,832.2,670z
				 M751.7,626l77.9,37.3v-94.7l-77.9-37.2V626z"/>
		</g>
		<g>
			<polygon fill="#FFFFFF" points="832.2,667.4 915.2,627.7 915.2,527.2 832.2,567 			"/>
			<path d="M832.2,670c-0.5,0-1-0.1-1.4-0.4c-0.8-0.5-1.2-1.3-1.2-2.2V567c0-1,0.6-1.9,1.5-2.3l83.1-39.7c0.8-0.4,1.7-0.3,2.5,0.1
				c0.8,0.5,1.2,1.3,1.2,2.2v100.4c0,1-0.6,1.9-1.5,2.3l-83.1,39.7C832.9,669.9,832.5,670,832.2,670z M834.7,568.6v94.7l77.9-37.3
				v-94.7L834.7,568.6z"/>
		</g>
	</g>
	<g>
		<g>
			<polygon fill="#FFFFFF" points="616.9,589.9 700,629.6 783.1,589.9 700,550.2 			"/>
			<path d="M700,632.2c-0.4,0-0.8-0.1-1.1-0.3l-83.1-39.7c-0.9-0.4-1.5-1.3-1.5-2.3c0-1,0.6-1.9,1.5-2.3l83.1-39.7
				c0.7-0.3,1.5-0.3,2.2,0l83.1,39.7c0.9,0.4,1.5,1.3,1.5,2.3c0,1-0.6,1.9-1.5,2.3L701.1,632C700.8,632.1,700.4,632.2,700,632.2z
				 M622.9,589.9l77.1,36.8l77.1-36.8L700,553.1L622.9,589.9z"/>
		</g>
		<g>
			<polygon fill="#FFFFFF" points="616.9,589.9 616.9,690.3 700,730 700,629.6 			"/>
			<path d="M700,732.6c-0.4,0-0.8-0.1-1.1-0.3l-83.1-39.7c-0.9-0.4-1.5-1.3-1.5-2.3V589.9c0-0.9,0.5-1.7,1.2-2.2
				c0.8-0.5,1.7-0.5,2.5-0.1l83.1,39.7c0.9,0.4,1.5,1.3,1.5,2.3V730c0,0.9-0.5,1.7-1.2,2.2C701,732.5,700.5,732.6,700,732.6z
				 M619.5,688.7l77.9,37.2v-94.7L619.5,594V688.7z"/>
		</g>
		<g>
			<polygon fill="#FFFFFF" points="700,730 783.1,690.3 783.1,589.9 700,629.6 			"/>
			<path d="M700,732.6c-0.5,0-1-0.1-1.4-0.4c-0.8-0.5-1.2-1.3-1.2-2.2V629.6c0-1,0.6-1.9,1.5-2.3l83.1-39.7c0.8-0.4,1.7-0.3,2.5,0.1
				c0.8,0.5,1.2,1.3,1.2,2.2v100.4c0,1-0.6,1.9-1.5,2.3l-83.1,39.7C700.8,732.5,700.4,732.6,700,732.6z M702.6,631.3v94.7l77.9-37.2
				V594L702.6,631.3z"/>
		</g>
	</g>
	<g>
		<g>
			<polygon fill="#FFFFFF" points="467.8,352.3 550.9,392.1 633.9,352.3 550.9,312.6 			"/>
			<path d="M550.9,394.6c-0.4,0-0.8-0.1-1.1-0.3l-83.1-39.7c-0.9-0.4-1.5-1.3-1.5-2.3s0.6-1.9,1.5-2.3l83.1-39.7
				c0.7-0.3,1.5-0.3,2.2,0l83.1,39.7c0.9,0.4,1.5,1.3,1.5,2.3s-0.6,1.9-1.5,2.3L552,394.4C551.6,394.6,551.3,394.6,550.9,394.6z
				 M473.8,352.3l77.1,36.9l77.1-36.9l-77.1-36.8L473.8,352.3z"/>
		</g>
		<g>
			<polygon fill="#FFFFFF" points="467.8,352.3 467.8,452.8 550.9,492.5 550.9,392.1 			"/>
			<path d="M550.9,495.1c-0.4,0-0.8-0.1-1.1-0.3l-83.1-39.7c-0.9-0.4-1.5-1.3-1.5-2.3V352.3c0-0.9,0.5-1.7,1.2-2.2
				c0.8-0.5,1.7-0.5,2.5-0.1l83.1,39.7c0.9,0.4,1.5,1.3,1.5,2.3v100.4c0,0.9-0.5,1.7-1.2,2.2C551.8,494.9,551.4,495.1,550.9,495.1z
				 M470.4,451.1l77.9,37.2v-94.7l-77.9-37.3V451.1z"/>
		</g>
		<g>
			<polygon fill="#FFFFFF" points="550.9,492.5 633.9,452.8 633.9,352.3 550.9,392.1 			"/>
			<path d="M550.9,495.1c-0.5,0-1-0.1-1.4-0.4c-0.8-0.5-1.2-1.3-1.2-2.2V392.1c0-1,0.6-1.9,1.5-2.3l83.1-39.7
				c0.8-0.4,1.7-0.3,2.5,0.1c0.8,0.5,1.2,1.3,1.2,2.2v100.4c0,1-0.6,1.9-1.5,2.3L552,494.8C551.6,495,551.3,495.1,550.9,495.1z
				 M553.5,393.7v94.7l77.9-37.2v-94.7L553.5,393.7z"/>
		</g>
	</g>
	<g>
		<g>
			<polygon fill="#FFFFFF" points="749.1,361.2 832.2,400.9 915.2,361.2 832.2,321.5 			"/>
			<path d="M832.2,403.5c-0.4,0-0.8-0.1-1.1-0.3L748,363.5c-0.9-0.4-1.5-1.3-1.5-2.3c0-1,0.6-1.9,1.5-2.3l83.1-39.7
				c0.7-0.3,1.5-0.3,2.2,0l83.1,39.7c0.9,0.4,1.5,1.3,1.5,2.3c0,1-0.6,1.9-1.5,2.3l-83.1,39.7C832.9,403.4,832.5,403.5,832.2,403.5z
				 M755.1,361.2l77.1,36.9l77.1-36.9l-77.1-36.8L755.1,361.2z"/>
		</g>
		<g>
			<polygon fill="#FFFFFF" points="749.1,361.2 749.1,461.6 832.2,501.3 832.2,400.9 			"/>
			<path d="M832.2,503.9c-0.4,0-0.8-0.1-1.1-0.3L748,463.9c-0.9-0.4-1.5-1.3-1.5-2.3V361.2c0-0.9,0.5-1.7,1.2-2.2
				c0.7-0.5,1.7-0.5,2.5-0.1l83.1,39.7c0.9,0.4,1.5,1.3,1.5,2.3v100.4c0,0.9-0.5,1.7-1.2,2.2C833.1,503.8,832.6,503.9,832.2,503.9z
				 M751.7,460l77.9,37.3v-94.7l-77.9-37.3V460z"/>
		</g>
		<g>
			<polygon fill="#FFFFFF" points="832.2,501.3 915.2,461.6 915.2,361.2 832.2,400.9 			"/>
			<path d="M832.2,503.9c-0.5,0-1-0.1-1.4-0.4c-0.8-0.5-1.2-1.3-1.2-2.2V400.9c0-1,0.6-1.9,1.5-2.3l83.1-39.7
				c0.8-0.4,1.7-0.3,2.5,0.1c0.8,0.5,1.2,1.3,1.2,2.2v100.4c0,1-0.6,1.9-1.5,2.3l-83.1,39.7C832.9,503.8,832.5,503.9,832.2,503.9z
				 M834.7,402.5v94.7l77.9-37.3v-94.7L834.7,402.5z"/>
		</g>
	</g>
	<g>
		<g>
			<polygon fill="#FFFFFF" points="616.9,423.9 700,463.6 783.1,423.9 700,384.1 			"/>
			<path d="M700,466.2c-0.4,0-0.8-0.1-1.1-0.3l-83.1-39.7c-0.9-0.4-1.5-1.3-1.5-2.3c0-1,0.6-1.9,1.5-2.3l83.1-39.7
				c0.7-0.3,1.5-0.3,2.2,0l83.1,39.7c0.9,0.4,1.5,1.3,1.5,2.3c0,1-0.6,1.9-1.5,2.3l-83.1,39.7C700.8,466.1,700.4,466.2,700,466.2z
				 M622.9,423.9l77.1,36.8l77.1-36.8L700,387L622.9,423.9z"/>
		</g>
		<g>
			<polygon fill="#FFFFFF" points="616.9,423.9 616.9,524.3 700,564 700,463.6 			"/>
			<path d="M700,566.6c-0.4,0-0.8-0.1-1.1-0.3l-83.1-39.7c-0.9-0.4-1.5-1.3-1.5-2.3V423.9c0-0.9,0.5-1.7,1.2-2.2
				c0.8-0.5,1.7-0.5,2.5-0.1l83.1,39.7c0.9,0.4,1.5,1.3,1.5,2.3V564c0,0.9-0.5,1.7-1.2,2.2C701,566.5,700.5,566.6,700,566.6z
				 M619.5,522.6l77.9,37.3v-94.7L619.5,428V522.6z"/>
		</g>
		<g>
			<polygon fill="#FFFFFF" points="700,564 783.1,524.3 783.1,423.9 700,463.6 			"/>
			<path d="M700,566.6c-0.5,0-1-0.1-1.4-0.4c-0.8-0.5-1.2-1.3-1.2-2.2V463.6c0-1,0.6-1.9,1.5-2.3l83.1-39.7c0.8-0.4,1.7-0.3,2.5,0.1
				c0.8,0.5,1.2,1.3,1.2,2.2v100.4c0,1-0.6,1.9-1.5,2.3l-83.1,39.7C700.8,566.5,700.4,566.6,700,566.6z M702.6,465.2v94.7l77.9-37.3
				V428L702.6,465.2z"/>
		</g>
	</g>
	<g>
		<path d="M133.5,156.2c-1.2,0-2.3-0.9-2.5-2.1c-0.3-1.4,0.6-2.8,2-3l203.3-39.7c1.4-0.3,2.8,0.6,3,2c0.3,1.4-0.6,2.8-2,3L134,156.1
			C133.9,156.2,133.7,156.2,133.5,156.2z"/>
	</g>
	<g>
		<path d="M242.1,311.2c-0.8,0-1.6-0.4-2.1-1.1l-108.5-155c-0.8-1.2-0.5-2.8,0.6-3.6c1.2-0.8,2.8-0.5,3.6,0.6l108.5,155
			c0.8,1.2,0.5,2.8-0.6,3.6C243.1,311.1,242.6,311.2,242.1,311.2z"/>
	</g>
	<g>
		<path d="M242.1,311.2c-0.4,0-0.8-0.1-1.1-0.3c-1.3-0.6-1.8-2.2-1.2-3.5l94.7-194.8c0.6-1.3,2.2-1.8,3.5-1.2
			c1.3,0.6,1.8,2.2,1.2,3.5l-94.7,194.8C243.9,310.7,243,311.2,242.1,311.2z"/>
	</g>
	<g>
		<circle fill="#FFFFFF" cx="133.5" cy="153.6" r="62"/>
		<path d="M133.5,218.2c-35.6,0-64.6-29-64.6-64.6c0-35.6,29-64.6,64.6-64.6c35.6,0,64.6,29,64.6,64.6
			C198.1,189.2,169.2,218.2,133.5,218.2z M133.5,94.1c-32.8,0-59.4,26.7-59.4,59.4c0,32.8,26.7,59.4,59.4,59.4
			c32.8,0,59.4-26.7,59.4-59.4C193,120.8,166.3,94.1,133.5,94.1z"/>
	</g>
	<g>
		<path d="M136.7,114.4l-0.2-0.6h-5l-27.7,71.9h5.2l9.2-23.9h31.4l9.1,23.9h5.2L136.7,114.4z M147.7,157.1h-27.7l14-36.1
			L147.7,157.1z"/>
	</g>
	<g>
		<circle fill="#FFFFFF" cx="329.9" cy="113.9" r="45.2"/>
		<path d="M329.9,161.7c-26.4,0-47.8-21.4-47.8-47.8s21.4-47.8,47.8-47.8c26.4,0,47.8,21.4,47.8,47.8S356.3,161.7,329.9,161.7z
			 M329.9,71.2c-23.5,0-42.6,19.1-42.6,42.6c0,23.5,19.1,42.6,42.6,42.6c23.5,0,42.6-19.1,42.6-42.6
			C372.6,90.4,353.4,71.2,329.9,71.2z"/>
	</g>
	<g>
		<path d="M343.9,121.5l-0.4,1.6c-0.6,2.5-1.8,4.5-3.6,6.1c-2.4,2-5.5,3.1-9.4,3.1c-4.8,0-8.3-1.9-10.7-5.8c-2.1-3.3-3.1-7.7-3.1-13
			c0-5.3,1.1-9.7,3.3-13.1c2.5-4,6.1-5.9,10.9-5.9c6.5,0,10.6,2.5,12.3,7.8l0.5,1.4l4.2-2.2l-0.4-1.1c-0.9-2.6-2.6-4.8-4.8-6.6
			c-3.1-2.5-6.9-3.7-11.4-3.7c-6.5,0-11.6,2.4-14.9,7.2c-2.8,4.1-4.3,9.6-4.3,16.1c0,6.6,1.4,11.9,4.1,15.9
			c3.3,4.8,8.2,7.2,14.6,7.2c5,0,9.1-1.4,12.2-4.1c2.3-2.1,3.9-4.7,4.7-7.8l0.3-1L343.9,121.5z"/>
	</g>
	<g>
		<circle fill="#FFFFFF" cx="242.1" cy="308.6" r="64.6"/>
		<path d="M242.1,375.8c-37,0-67.2-30.1-67.2-67.2c0-37,30.1-67.2,67.2-67.2c37,0,67.2,30.1,67.2,67.2
			C309.2,345.7,279.1,375.8,242.1,375.8z M242.1,246.6c-34.2,0-62,27.8-62,62c0,34.2,27.8,62,62,62c34.2,0,62-27.8,62-62
			C304.1,274.4,276.3,246.6,242.1,246.6z"/>
	</g>
	<g>
		<path d="M257.7,306.8c6.6-3.1,10-8.4,10-15.8c0-6.9-2.7-12-7.9-15.1c-3.6-2.1-9.6-3.1-18.6-3.1H221v71.9h22.3
			c9.2,0,15.6-1.2,19.6-3.5c5.6-3.5,8.4-8.9,8.4-16.1C271.2,315.5,266.7,309.4,257.7,306.8z M226.1,309.4h16.5
			c7.1,0,12.4,0.9,16,2.5c5,2.3,7.4,6.4,7.4,12.4c0,7.1-2.6,11.6-8,13.8c-2.7,1.1-7.9,1.7-15.5,1.7h-16.4V309.4z M241.5,305.1h-15.4
			v-27.6h15.2c6.7,0,11.7,0.7,14.6,2.1c4.4,2,6.6,5.7,6.6,11.3C262.5,300.4,255.6,305.1,241.5,305.1z"/>
	</g>
	<g>
		<path d="M1331.1,394.6h-255c-1.4,0-2.6-1.2-2.6-2.6V84.2c0-1.4,1.2-2.6,2.6-2.6h255c1.4,0,2.6,1.2,2.6,2.6v307.9
			C1333.7,393.5,1332.5,394.6,1331.1,394.6z M1078.7,389.5h249.8V86.7h-249.8V389.5z"/>
	</g>
	<g>
		<path d="M1127.4,159.4c-0.7,0-1.3-0.3-1.8-0.8l-19-18.9c-1-1-1-2.6,0-3.7c1-1,2.6-1,3.7,0l17.1,17.1l27-27c1-1,2.6-1,3.7,0
			c1,1,1,2.6,0,3.7l-28.9,28.8C1128.7,159.1,1128,159.4,1127.4,159.4z"/>
	</g>
	<g>
		<path d="M1127.4,208.4c-0.7,0-1.3-0.3-1.8-0.8l-19-19c-1-1-1-2.6,0-3.7c1-1,2.6-1,3.7,0l17.1,17.1l27-27c1-1,2.6-1,3.7,0
			c1,1,1,2.6,0,3.7l-28.9,28.9C1128.7,208.1,1128,208.4,1127.4,208.4z"/>
	</g>
	<g>
		<path d="M1127.4,257.4c-0.7,0-1.3-0.3-1.8-0.8l-19-18.9c-1-1-1-2.6,0-3.7c1-1,2.6-1,3.7,0l17.1,17.1l27-27c1-1,2.6-1,3.7,0
			s1,2.6,0,3.7l-28.9,28.8C1128.7,257.1,1128,257.4,1127.4,257.4z"/>
	</g>
	<g>
		<path d="M1127.4,306.4c-0.7,0-1.3-0.3-1.8-0.8l-19-19c-1-1-1-2.6,0-3.7c1-1,2.6-1,3.7,0l17.1,17.1l27-27c1-1,2.6-1,3.7,0
			c1,1,1,2.6,0,3.7l-28.9,28.9C1128.7,306.1,1128,306.4,1127.4,306.4z"/>
	</g>
	<g>
		<rect x="760" y="525.8" fill="#FFFFFF" width="0" height="1.5"/>
	</g>
	<g>
		<g>
			<polygon fill="#FFFFFF" points="1150.2,354.1 1207.4,381.5 1264.7,354.1 1207.4,326.7 			"/>
			<path d="M1207.4,384.1c-0.4,0-0.8-0.1-1.1-0.3l-57.3-27.4c-0.9-0.4-1.5-1.3-1.5-2.3c0-1,0.6-1.9,1.5-2.3l57.3-27.4
				c0.7-0.3,1.5-0.3,2.2,0l57.3,27.4c0.9,0.4,1.5,1.3,1.5,2.3c0,1-0.6,1.9-1.5,2.3l-57.3,27.4C1208.2,384,1207.8,384.1,1207.4,384.1
				z M1156.2,354.1l51.3,24.5l51.3-24.5l-51.3-24.5L1156.2,354.1z"/>
		</g>
		<g>
			<polygon fill="#FFFFFF" points="1150.2,354.1 1150.2,423.4 1207.4,450.8 1207.4,381.5 			"/>
			<path d="M1207.4,453.3c-0.4,0-0.8-0.1-1.1-0.3l-57.3-27.4c-0.9-0.4-1.5-1.3-1.5-2.3v-69.2c0-0.9,0.5-1.7,1.2-2.2
				c0.7-0.5,1.7-0.5,2.5-0.1l57.3,27.4c0.9,0.4,1.5,1.3,1.5,2.3v69.2c0,0.9-0.5,1.7-1.2,2.2C1208.4,453.2,1207.9,453.3,1207.4,453.3
				z M1152.7,421.7l52.1,24.9v-63.5l-52.1-24.9V421.7z"/>
		</g>
		<g>
			<polygon fill="#FFFFFF" points="1207.4,450.8 1264.7,423.4 1264.7,354.1 1207.4,381.5 			"/>
			<path d="M1207.4,453.3c-0.5,0-1-0.1-1.4-0.4c-0.8-0.5-1.2-1.3-1.2-2.2v-69.2c0-1,0.6-1.9,1.5-2.3l57.3-27.4
				c0.8-0.4,1.7-0.3,2.5,0.1c0.8,0.5,1.2,1.3,1.2,2.2v69.2c0,1-0.6,1.9-1.5,2.3l-57.3,27.4C1208.2,453.2,1207.8,453.3,1207.4,453.3z
				 M1210,383.1v63.5l52.1-24.9v-63.5L1210,383.1z"/>
		</g>
	</g>
	<g>
		<g>
			<polygon fill="#FFFFFF" points="141.7,765.9 202.4,794.9 263.2,765.9 202.4,736.8 			"/>
			<path d="M202.4,797.5c-0.4,0-0.8-0.1-1.1-0.3l-60.7-29c-0.9-0.4-1.5-1.3-1.5-2.3c0-1,0.6-1.9,1.5-2.3l60.7-29.1
				c0.7-0.3,1.5-0.3,2.2,0l60.8,29.1c0.9,0.4,1.5,1.3,1.5,2.3c0,1-0.6,1.9-1.5,2.3l-60.8,29C203.2,797.4,202.8,797.5,202.4,797.5z
				 M147.7,765.9l54.8,26.2l54.8-26.2l-54.8-26.2L147.7,765.9z"/>
		</g>
		<g>
			<polygon fill="#FFFFFF" points="141.7,765.9 141.7,839.3 202.4,868.3 202.4,794.9 			"/>
			<path d="M202.4,870.9c-0.4,0-0.8-0.1-1.1-0.3l-60.7-29.1c-0.9-0.4-1.5-1.3-1.5-2.3v-73.4c0-0.9,0.5-1.7,1.2-2.2
				c0.8-0.5,1.7-0.5,2.5-0.1l60.7,29c0.9,0.4,1.5,1.3,1.5,2.3v73.4c0,0.9-0.5,1.7-1.2,2.2C203.4,870.8,202.9,870.9,202.4,870.9z
				 M144.3,837.7l55.6,26.6v-67.7L144.3,770V837.7z"/>
		</g>
		<g>
			<polygon fill="#FFFFFF" points="202.4,868.3 263.2,839.3 263.2,765.9 202.4,794.9 			"/>
			<path d="M202.4,870.9c-0.5,0-1-0.1-1.4-0.4c-0.8-0.5-1.2-1.3-1.2-2.2v-73.4c0-1,0.6-1.9,1.5-2.3l60.8-29c0.8-0.4,1.7-0.3,2.5,0.1
				c0.8,0.5,1.2,1.3,1.2,2.2v73.4c0,1-0.6,1.9-1.5,2.3l-60.8,29.1C203.2,870.8,202.8,870.9,202.4,870.9z M205,796.5v67.7l55.6-26.6
				V770L205,796.5z"/>
		</g>
	</g>
	<g>
		<path d="M1300.1,148.4h-109.2c-1.4,0-2.6-1.2-2.6-2.6c0-1.4,1.2-2.6,2.6-2.6h109.2c1.4,0,2.6,1.2,2.6,2.6
			C1302.7,147.3,1301.5,148.4,1300.1,148.4z"/>
	</g>
	<g>
		<path d="M1300.1,194h-109.2c-1.4,0-2.6-1.2-2.6-2.6s1.2-2.6,2.6-2.6h109.2c1.4,0,2.6,1.2,2.6,2.6S1301.5,194,1300.1,194z"/>
	</g>
	<g>
		<path d="M1300.1,239.5h-109.2c-1.4,0-2.6-1.2-2.6-2.6c0-1.4,1.2-2.6,2.6-2.6h109.2c1.4,0,2.6,1.2,2.6,2.6
			C1302.7,238.4,1301.5,239.5,1300.1,239.5z"/>
	</g>
	<g>
		<path d="M1300.1,285.1h-109.2c-1.4,0-2.6-1.2-2.6-2.6s1.2-2.6,2.6-2.6h109.2c1.4,0,2.6,1.2,2.6,2.6S1301.5,285.1,1300.1,285.1z"/>
	</g>
	<g>
		<path fill="#FFFFFF" d="M1020.3,197.8c-10.8-0.5-20.4-6.5-25.8-15.9c-4.1-7.3-5.2-15.7-3-23.7c1.9-6.9,6.1-13,11.9-17.2l2.1-1.6
			l-1.5-2.2c-5.6-8.2-12.3-15.6-20-22.1l-2.1-1.8l-1.8,2c-2.4,2.8-5.2,5.1-8.3,6.9c-15.1,8.6-34.3,3.2-42.9-11.8
			c-2.9-5.2-4.3-11.2-4-17.2l0.1-2.7l-2.7-0.2c-9.9-0.7-19.9,0-29.6,2l-2.6,0.5l0.5,2.7c0.8,4.6,0.6,9.4-0.6,13.9
			c-2.2,8.2-7.4,14.9-14.8,19.1c-11.6,6.6-26.1,5.1-36.2-3.7l-2-1.8l-1.8,2c-6.6,7.2-12.3,15.3-16.8,24.2l-1.2,2.4l2.4,1.2
			c5.4,2.9,9.8,7.1,12.8,12.4c4.1,7.3,5.2,15.7,3,23.8c-2.2,8.1-7.5,14.9-14.8,19.1c-3.2,1.8-6.7,3.1-10.4,3.7l-2.7,0.5l0.5,2.7
			c1.6,9.9,4.5,19.5,8.7,28.6l1.1,2.4l2.5-1.1c14.7-6.3,31.8-0.6,39.7,13.4c4.1,7.2,5.1,15.7,2.9,23.8c-0.6,2.2-1.5,4.4-2.5,6.5
			l-1.2,2.3l2.3,1.3c8.4,4.8,17.5,8.4,27.2,10.8l2.6,0.7l0.7-2.6c2.3-8.1,7.5-14.8,14.8-18.9c15.1-8.6,34.4-3.3,42.9,11.8
			c0.5,1,1,2,1.5,3.1l1,2.5l2.5-1c4.9-2,9.3-4.1,13.5-6.5c4.2-2.4,8.4-5.2,12.5-8.3l2.1-1.6l-1.5-2.2c-0.7-0.9-1.3-1.9-1.9-2.9
			c-4.1-7.3-5.2-15.7-3-23.8c2.2-8.2,7.5-14.9,14.8-19.1c7.2-4.2,15.7-5.2,23.8-3l2.6,0.7l0.8-2.6c2.9-9.4,4.4-19.2,4.7-29l0-2.7
			L1020.3,197.8z M971.2,214.3c-8.4,30.8-40.2,49-71,40.7c-30.8-8.4-49-40.2-40.7-71c8.4-30.8,40.2-49,71-40.7
			C961.4,151.7,979.6,183.5,971.2,214.3z"/>
		<path d="M891.2,306.4c-0.2,0-0.4,0-0.6-0.1l-2.6-0.7c-9.7-2.4-19.1-6.1-27.8-11.1l-2.3-1.3c-1.2-0.7-1.7-2.2-1-3.5l1.2-2.3
			c1-1.8,1.8-3.9,2.3-6c2-7.4,1.1-15.2-2.7-21.8c-5.1-9-14.7-14.6-25.1-14.6c-3.9,0-7.7,0.8-11.4,2.3l-2.5,1.1
			c-1.3,0.5-2.8,0-3.4-1.3l-1.1-2.4c-4.3-9.3-7.3-19.2-8.9-29.3l-0.4-2.7c-0.2-1.4,0.7-2.7,2.1-3l2.7-0.5c3.3-0.6,6.6-1.7,9.6-3.4
			c6.7-3.8,11.5-10,13.6-17.5c2-7.4,1-15.2-2.8-21.8c-2.7-4.8-6.8-8.7-11.8-11.4L816,154c-1.3-0.6-1.8-2.2-1.1-3.5l1.2-2.4
			c4.6-9.1,10.4-17.4,17.2-24.8l1.8-2c0.9-1,2.5-1.1,3.6-0.2l2,1.8c9,7.8,22.9,9.2,33.2,3.4c6.7-3.8,11.6-10,13.6-17.5
			c1.1-4.2,1.3-8.6,0.6-12.7l-0.5-2.7c-0.2-1.4,0.7-2.7,2-3l2.6-0.5c9.9-2,20.2-2.7,30.3-2l2.7,0.2c1.4,0.1,2.5,1.3,2.4,2.7
			l-0.1,2.7c-0.3,5.5,1,11,3.7,15.8c5.1,9,14.8,14.6,25.2,14.6c5,0,9.9-1.3,14.2-3.7c2.9-1.6,5.4-3.8,7.6-6.3l1.8-2.1
			c0.9-1.1,2.5-1.2,3.6-0.3l2.1,1.8c7.9,6.6,14.8,14.2,20.5,22.6l1.5,2.2c0.8,1.1,0.5,2.7-0.6,3.5l-2.1,1.6
			c-5.3,3.8-9.2,9.5-10.9,15.8c-2,7.4-1,15.1,2.8,21.8c4.9,8.6,13.8,14.1,23.7,14.6l2.7,0.1c1.4,0.1,2.5,1.2,2.5,2.6l0,2.7
			c-0.3,10.2-1.9,20.2-4.8,29.7l-0.8,2.6c-0.4,1.3-1.8,2.1-3.1,1.7l-2.6-0.7c-7.4-2-15.2-1-21.8,2.7c-6.8,3.8-11.6,10.1-13.6,17.5
			c-2,7.4-1,15.1,2.7,21.8c0.5,0.9,1.2,1.8,1.8,2.6l1.6,2.2c0.8,1.1,0.6,2.7-0.5,3.6l-2.1,1.6c-4.1,3.1-8.4,6-12.8,8.5
			c-4.1,2.3-8.7,4.5-13.8,6.6l-2.5,1c-1.3,0.5-2.8-0.1-3.4-1.4l-1-2.5c-0.4-1-0.9-2-1.4-2.9c-5.1-8.9-14.8-14.5-25.2-14.5
			c-5,0-9.9,1.3-14.2,3.8c-6.6,3.8-11.4,9.9-13.6,17.3l-0.7,2.6C893.4,305.6,892.3,306.4,891.2,306.4z M862.5,290l0.1,0.1
			c8.3,4.7,17.3,8.3,26.5,10.6l0.2,0l0-0.1c2.5-8.7,8.2-16,16-20.4c5.1-2.9,10.9-4.4,16.8-4.4c12.3,0,23.6,6.6,29.7,17.2
			c0.6,1.1,1.1,2.2,1.6,3.4l0.1,0.2l0.1-0.1c4.9-2,9.3-4.1,13.2-6.3c4.2-2.4,8.3-5.1,12.2-8.1l0.1-0.1l-0.1-0.1
			c-0.7-0.9-1.4-2-2.1-3.1c-4.5-7.9-5.6-17-3.2-25.7c2.4-8.8,8.1-16.2,16-20.7c7.7-4.4,17.1-5.6,25.7-3.2l0.1,0l0-0.2
			c2.8-9.1,4.3-18.6,4.6-28.3l0-0.2l-0.2,0c-11.7-0.6-22.1-7-27.9-17.2c-4.5-7.9-5.6-17-3.2-25.7c2-7.5,6.6-14.1,12.9-18.6l0.1-0.1
			l-0.1-0.2c-5.4-7.9-12-15.2-19.6-21.5l-0.1-0.1l-0.1,0.1c-2.6,3-5.6,5.5-9,7.4c-5.1,2.9-10.9,4.4-16.7,4.4
			c-12.3,0-23.6-6.6-29.7-17.2c-3.2-5.7-4.7-12.1-4.4-18.6l0-0.1l-0.1,0c-9.7-0.7-19.5,0-29,1.9l-0.2,0l0,0.2
			c0.9,4.9,0.7,10.1-0.7,15c-2.4,8.8-8.1,16.2-16,20.7c-12.2,6.9-28.5,5.3-39.2-4l-0.1-0.1l-0.1,0.1c-6.4,7-11.9,14.9-16.3,23.6
			l-0.1,0.1l0.1,0.1c5.9,3.1,10.7,7.8,13.9,13.4c4.5,7.9,5.6,17,3.2,25.7c-2.4,8.8-8.1,16.2-16,20.7c-3.6,2-7.4,3.3-11.3,4l-0.1,0
			l0,0.1c1.5,9.7,4.4,19.1,8.5,28l0.1,0.1l0.2-0.1c4.3-1.8,8.8-2.8,13.4-2.8c12.2,0,23.5,6.6,29.6,17.2c4.4,7.8,5.6,17,3.2,25.7
			c-0.7,2.5-1.6,4.8-2.7,7L862.5,290z M915.4,259.6c-5.3,0-10.7-0.7-15.9-2.1c-15.6-4.2-28.6-14.3-36.6-28.3
			c-8-14-10.1-30.3-5.9-45.9c7.1-26.3,31.1-44.6,58.3-44.6c5.3,0,10.7,0.7,15.9,2.1c32.2,8.7,51.2,42,42.5,74.2
			C966.6,241.3,942.6,259.6,915.4,259.6z M915.4,143.9c-24.9,0-46.8,16.8-53.3,40.8c-3.9,14.2-2,29.1,5.4,42
			c7.3,12.8,19.2,22,33.5,25.9c4.8,1.3,9.6,1.9,14.5,1.9c24.9,0,46.8-16.8,53.3-40.8c8-29.4-9.4-59.8-38.8-67.8
			C925.1,144.5,920.3,143.9,915.4,143.9z"/>
	</g>
	<g>
		<path fill="#FFFFFF" d="M297.2,535.5c-11.3-0.5-21.4-6.8-27-16.6c-4.3-7.6-5.5-16.5-3.1-24.9c2-7.2,6.4-13.7,12.5-18.1l2.2-1.7
			l-1.6-2.3c-5.9-8.6-12.9-16.3-21-23.1L257,447l-1.9,2.1c-2.5,2.9-5.4,5.3-8.7,7.2c-15.8,9-36,3.4-45-12.4
			c-3.1-5.5-4.5-11.7-4.2-18.1l0.2-2.8l-2.8-0.2c-10.4-0.7-20.9,0-31.1,2.1l-2.8,0.6l0.5,2.8c0.9,4.8,0.6,9.8-0.6,14.6
			c-2.3,8.6-7.8,15.7-15.5,20c-12.1,6.9-27.4,5.3-38-3.8l-2.1-1.8l-1.9,2.1c-7,7.5-12.9,16.1-17.6,25.4l-1.3,2.5l2.5,1.3
			c5.7,3,10.3,7.5,13.4,13c4.3,7.6,5.4,16.5,3.1,24.9c-2.3,8.5-7.8,15.7-15.5,20c-3.4,1.9-7.1,3.2-11,3.9l-2.8,0.5l0.5,2.8
			c1.6,10.4,4.7,20.5,9.1,30l1.2,2.5l2.6-1.1c15.4-6.6,33.4-0.6,41.7,14c4.3,7.6,5.4,16.5,3.1,25c-0.6,2.4-1.5,4.7-2.7,6.8l-1.3,2.5
			l2.4,1.4c8.8,5,18.4,8.9,28.5,11.4l2.7,0.7l0.8-2.7c2.4-8.5,7.9-15.5,15.5-19.8c15.8-9,36-3.4,45.1,12.4c0.6,1,1.1,2.1,1.6,3.3
			l1.1,2.6l2.6-1.1c5.1-2.1,9.7-4.3,14.2-6.8c4.5-2.5,8.8-5.4,13.1-8.7l2.2-1.7l-1.6-2.3c-0.7-0.9-1.4-2-2-3.1
			c-4.3-7.6-5.5-16.5-3.1-24.9c2.3-8.6,7.8-15.7,15.5-20c7.6-4.4,16.5-5.5,24.9-3.1l2.7,0.7l0.8-2.7c3-9.8,4.6-20.1,4.9-30.4
			l0.1-2.8L297.2,535.5z"/>
		<path d="M161.8,649.4c-0.2,0-0.4,0-0.6-0.1l-2.7-0.7c-10.2-2.5-20-6.4-29.2-11.6l-2.4-1.4c-1.2-0.7-1.7-2.2-1-3.5l1.3-2.5
			c1-1.9,1.8-4.1,2.5-6.3c2.1-7.8,1.1-16-2.8-23c-5.4-9.5-15.5-15.4-26.4-15.4c-4.1,0-8.2,0.8-12,2.5l-2.6,1.1
			c-1.3,0.5-2.8,0-3.4-1.3l-1.2-2.5c-4.5-9.8-7.6-20.1-9.3-30.7l-0.5-2.8c-0.2-1.4,0.7-2.7,2.1-3l2.8-0.5c3.5-0.6,6.9-1.8,10.1-3.6
			c7.1-4,12.2-10.6,14.3-18.5c2.1-7.8,1.1-16-2.9-23c-2.8-5-7.1-9.2-12.4-12l-2.5-1.3c-1.3-0.6-1.8-2.2-1.1-3.5l1.3-2.5
			c4.9-9.5,10.9-18.3,18-25.9l1.9-2.1c1-1,2.5-1.1,3.6-0.2l2.1,1.8c9.5,8.3,24.1,9.7,35,3.5c7.1-4,12.2-10.6,14.3-18.5
			c1.2-4.4,1.4-9,0.6-13.4l-0.5-2.8c-0.2-1.4,0.7-2.7,2-3l2.8-0.6c10.4-2.1,21.1-2.9,31.8-2.1l2.8,0.2c1.4,0.1,2.5,1.3,2.4,2.7
			l-0.2,2.8c-0.3,5.8,1.1,11.6,3.9,16.7c5.4,9.5,15.6,15.4,26.5,15.4c5.2,0,10.4-1.4,14.9-3.9c3-1.7,5.7-4,8-6.6l1.9-2.2
			c0.9-1.1,2.5-1.2,3.6-0.3l2.2,1.8c8.3,7,15.5,14.9,21.5,23.7l1.6,2.4c0.8,1.1,0.5,2.7-0.6,3.5L281,478c-5.6,4-9.7,10-11.5,16.7
			c-2.1,7.8-1.1,15.9,2.9,22.9c5.2,9.1,14.5,14.8,24.9,15.3l2.8,0.1c1.4,0.1,2.5,1.2,2.5,2.6l0,2.8c-0.3,10.7-2,21.1-5,31.1
			l-0.8,2.7c-0.4,1.3-1.8,2.1-3.1,1.8l-2.7-0.7c-7.8-2.2-16.1-1.1-23,2.9c-7.1,4-12.2,10.6-14.3,18.5c-2.1,7.8-1.1,15.9,2.9,23
			c0.6,1,1.2,1.9,1.9,2.8l1.7,2.3c0.8,1.1,0.6,2.7-0.5,3.6l-2.2,1.7c-4.3,3.3-8.9,6.3-13.4,8.9c-4.3,2.5-9.1,4.7-14.5,6.9l-2.6,1.1
			c-1.3,0.5-2.8-0.1-3.4-1.4l-1.1-2.6c-0.5-1-1-2.1-1.5-3.1c-5.4-9.4-15.5-15.3-26.5-15.3c-5.2,0-10.4,1.4-15,4
			c-7,4-12.1,10.4-14.3,18.3l-0.8,2.7C164,648.6,163,649.4,161.8,649.4z M131.6,632.3l0.3,0.1c8.8,5,18.1,8.7,27.9,11.1l0.3,0.1
			l0.1-0.3c2.6-9.1,8.5-16.7,16.7-21.3c5.3-3,11.4-4.6,17.5-4.6c12.8,0,24.7,6.9,31,18c0.6,1.2,1.2,2.3,1.7,3.5l0.1,0.3l0.3-0.1
			c5.2-2.1,9.7-4.3,13.9-6.6c4.3-2.4,8.6-5.3,12.8-8.5l0.2-0.2l-0.2-0.2c-0.7-1-1.5-2.1-2.2-3.3c-4.7-8.2-5.9-17.8-3.4-26.9
			c2.5-9.2,8.5-16.9,16.8-21.6c8.1-4.7,17.8-5.9,26.9-3.4l0.3,0.1l0.1-0.3c2.9-9.5,4.5-19.5,4.8-29.7l0-0.3l-0.3,0
			c-12.2-0.6-23.1-7.3-29.2-17.9c-4.7-8.2-5.9-17.8-3.4-26.9c2.1-7.8,6.9-14.8,13.4-19.5l0.2-0.2l-0.2-0.3
			c-5.7-8.3-12.6-15.9-20.5-22.6l-0.2-0.2l-0.2,0.2c-2.7,3.1-5.8,5.7-9.4,7.8c-5.3,3-11.4,4.6-17.5,4.6c-12.8,0-24.7-6.9-31-18
			c-3.3-5.9-4.9-12.6-4.6-19.5l0-0.3l-0.2,0c-10.2-0.7-20.5,0-30.4,2l-0.3,0.1l0.1,0.3c0.9,5.1,0.7,10.6-0.7,15.7
			c-2.5,9.2-8.4,16.9-16.7,21.6c-5.3,3-11.4,4.6-17.5,4.6c-8.6,0-16.9-3.1-23.4-8.8l-0.2-0.2l-0.2,0.2c-6.8,7.3-12.5,15.7-17.2,24.8
			l-0.1,0.3l0.3,0.1c6.2,3.3,11.2,8.1,14.5,14c4.7,8.2,5.9,17.8,3.4,26.9c-2.5,9.2-8.5,16.9-16.8,21.6c-3.8,2.1-7.7,3.5-11.8,4.2
			l-0.3,0l0.1,0.3c1.6,10.1,4.6,20,8.9,29.4l0.1,0.3l0.3-0.1c4.5-1.9,9.2-2.9,14-2.9c12.8,0,24.6,6.9,30.9,18
			c4.6,8.2,5.8,17.7,3.3,26.9c-0.7,2.6-1.7,5.1-2.9,7.3L131.6,632.3z"/>
	</g>
	<g>
		<g>
			<polygon fill="#FFFFFF" points="141.1,509.5 187,531.4 232.9,509.5 187,487.5 			"/>
			<path d="M187,534c-0.4,0-0.8-0.1-1.1-0.3L140,511.8c-0.9-0.4-1.5-1.3-1.5-2.3c0-1,0.6-1.9,1.5-2.3l45.9-21.9
				c0.7-0.3,1.5-0.3,2.2,0l45.9,21.9c0.9,0.4,1.5,1.3,1.5,2.3c0,1-0.6,1.9-1.5,2.3l-45.9,21.9C187.8,533.9,187.4,534,187,534z
				 M147.1,509.5l39.9,19.1l39.9-19.1L187,490.4L147.1,509.5z"/>
		</g>
		<g>
			<polygon fill="#FFFFFF" points="141.1,509.5 141.1,564.9 187,586.9 187,531.4 			"/>
			<path d="M187,589.5c-0.4,0-0.8-0.1-1.1-0.3l-45.9-22c-0.9-0.4-1.5-1.3-1.5-2.3v-55.5c0-0.9,0.5-1.7,1.2-2.2
				c0.7-0.5,1.7-0.5,2.5-0.1l45.9,21.9c0.9,0.4,1.5,1.3,1.5,2.3v55.5c0,0.9-0.5,1.7-1.2,2.2C188,589.3,187.5,589.5,187,589.5z
				 M143.7,563.3l40.7,19.5V533l-40.7-19.5V563.3z"/>
		</g>
		<g>
			<polygon fill="#FFFFFF" points="187,586.9 232.9,564.9 232.9,509.5 187,531.4 			"/>
			<path d="M187,589.5c-0.5,0-1-0.1-1.4-0.4c-0.8-0.5-1.2-1.3-1.2-2.2v-55.5c0-1,0.6-1.9,1.5-2.3l45.9-21.9c0.8-0.4,1.7-0.3,2.5,0.1
				c0.8,0.5,1.2,1.3,1.2,2.2v55.5c0,1-0.6,1.9-1.5,2.3l-45.9,22C187.8,589.4,187.4,589.5,187,589.5z M189.6,533v49.8l40.7-19.5
				v-49.7L189.6,533z"/>
		</g>
	</g>
	<g>
		<path d="M1331.1,918.5H1083c-1.4,0-2.6-1.2-2.6-2.6V527.2c0-1.4,1.2-2.6,2.6-2.6h248.1c1.4,0,2.6,1.2,2.6,2.6v388.7
			C1333.7,917.3,1332.5,918.5,1331.1,918.5z M1085.6,913.3h242.9V529.8h-242.9V913.3z"/>
	</g>
	<g>
		<g>
			<g>
				<polygon fill="#FFFFFF" points="1142,601.7 1207.3,632.9 1272.6,601.7 1207.3,570.5 				"/>
				<path d="M1207.3,635.5c-0.4,0-0.8-0.1-1.1-0.3l-65.3-31.2c-0.9-0.4-1.5-1.3-1.5-2.3c0-1,0.6-1.9,1.5-2.3l65.3-31.2
					c0.7-0.3,1.5-0.3,2.2,0l65.3,31.2c0.9,0.4,1.5,1.3,1.5,2.3c0,1-0.6,1.9-1.5,2.3l-65.3,31.2
					C1208,635.4,1207.7,635.5,1207.3,635.5z M1148,601.7l59.3,28.3l59.3-28.3l-59.3-28.3L1148,601.7z"/>
			</g>
			<g>
				<polygon fill="#FFFFFF" points="1142,601.7 1142,680.6 1207.3,711.8 1207.3,632.9 				"/>
				<path d="M1207.3,714.4c-0.4,0-0.8-0.1-1.1-0.3l-65.3-31.2c-0.9-0.4-1.5-1.3-1.5-2.3v-78.9c0-0.9,0.5-1.7,1.2-2.2
					c0.7-0.5,1.7-0.5,2.5-0.1l65.3,31.2c0.9,0.4,1.5,1.3,1.5,2.3v78.9c0,0.9-0.5,1.7-1.2,2.2
					C1208.2,714.3,1207.8,714.4,1207.3,714.4z M1144.6,679l60.1,28.7v-73.2l-60.1-28.7V679z"/>
			</g>
			<g>
				<polygon fill="#FFFFFF" points="1207.3,711.8 1272.6,680.6 1272.6,601.7 1207.3,632.9 				"/>
				<path d="M1207.3,714.4c-0.5,0-1-0.1-1.4-0.4c-0.8-0.5-1.2-1.3-1.2-2.2v-78.9c0-1,0.6-1.9,1.5-2.3l65.3-31.2
					c0.8-0.4,1.7-0.3,2.5,0.1c0.8,0.5,1.2,1.3,1.2,2.2v78.9c0,1-0.6,1.9-1.5,2.3l-65.3,31.2C1208,714.3,1207.7,714.4,1207.3,714.4z
					 M1209.9,634.5v73.2L1270,679v-73.2L1209.9,634.5z"/>
			</g>
		</g>
		<g>
			<g>
				<path fill="#FFFFFF" d="M1243.8,679.9c20.1,20.1,20.1,52.7,0,72.8c-20.1,20.1-52.7,20.1-72.8,0c-20.1-20.1-20.1-52.7,0-72.8
					C1191.1,659.8,1223.7,659.8,1243.8,679.9z"/>
				<path d="M1207.4,770.3c-14.4,0-28-5.6-38.2-15.8c-10.2-10.2-15.8-23.8-15.8-38.2s5.6-28,15.8-38.2
					c10.2-10.2,23.8-15.8,38.2-15.8c14.4,0,28,5.6,38.2,15.8c10.2,10.2,15.8,23.8,15.8,38.2s-5.6,28-15.8,38.2
					C1235.4,764.7,1221.9,770.3,1207.4,770.3z M1207.4,667.4c-13.1,0-25.3,5.1-34.5,14.3c-9.2,9.2-14.3,21.5-14.3,34.6
					c0,13.1,5.1,25.3,14.3,34.6c9.2,9.2,21.5,14.3,34.5,14.3c13.1,0,25.3-5.1,34.6-14.3c9.2-9.2,14.3-21.5,14.3-34.6
					c0-13.1-5.1-25.3-14.3-34.6C1232.8,672.5,1220.5,667.4,1207.4,667.4z"/>
			</g>
			<g>
				<path d="M1288,799.4c-0.7,0-1.3-0.3-1.8-0.8l-44.2-44.2c-1-1-1-2.6,0-3.7c1-1,2.6-1,3.7,0l44.2,44.2c1,1,1,2.6,0,3.7
					C1289.3,799.1,1288.7,799.4,1288,799.4z"/>
			</g>
			<g>
				<path d="M1177.2,759.3c-1.4,0-2.6-1.2-2.6-2.6v-40.5c0-1.4,1.2-2.6,2.6-2.6c1.4,0,2.6,1.2,2.6,2.6v40.5
					C1179.8,758.1,1178.6,759.3,1177.2,759.3z"/>
			</g>
			<g>
				<path d="M1197.1,769.3C1197.1,769.3,1197.1,769.3,1197.1,769.3c-1.5,0-2.6-1.2-2.6-2.6l0.3-32.4c0-1.4,1.2-2.6,2.6-2.6
					c0,0,0,0,0,0c1.4,0,2.6,1.2,2.6,2.6l-0.3,32.4C1199.6,768.1,1198.5,769.3,1197.1,769.3z"/>
			</g>
			<g>
				<path d="M1217.5,769.5c-1.4,0-2.6-1.2-2.6-2.6v-56.5c0-1.4,1.2-2.6,2.6-2.6c1.4,0,2.6,1.2,2.6,2.6v56.5
					C1220.1,768.3,1219,769.5,1217.5,769.5z"/>
			</g>
			<g>
				<path d="M1237.7,760.4c-1.4,0-2.6-1.2-2.6-2.6v-53.5c0-1.4,1.2-2.6,2.6-2.6c1.4,0,2.6,1.2,2.6,2.6v53.5
					C1240.3,759.2,1239.1,760.4,1237.7,760.4z"/>
			</g>
		</g>
	</g>
	<g>
		<path d="M1237.7,833.2h-117.7c-1.4,0-2.6-1.2-2.6-2.6v-24.3c0-1.4,1.2-2.6,2.6-2.6h117.7c1.4,0,2.6,1.2,2.6,2.6v24.3
			C1240.3,832.1,1239.1,833.2,1237.7,833.2z M1122.6,828h112.5v-19.2h-112.5V828z"/>
	</g>
	<g>
		<path d="M1294.1,881.7h-174c-1.4,0-2.6-1.2-2.6-2.6v-24.3c0-1.4,1.2-2.6,2.6-2.6h174c1.4,0,2.6,1.2,2.6,2.6v24.3
			C1296.6,880.5,1295.5,881.7,1294.1,881.7z M1122.6,876.5h168.8v-19.2h-168.8V876.5z"/>
	</g>
	<g>
		<path d="M361.2,918.5H89c-1.4,0-2.6-1.2-2.6-2.6V704.3c0-1.4,1.2-2.6,2.6-2.6h272.2c1.4,0,2.6,1.2,2.6,2.6v211.6
			C363.8,917.3,362.6,918.5,361.2,918.5z M91.6,913.3h267V706.9h-267V913.3z"/>
	</g>
	<g>
		<path d="M399.2,911.2c-0.4,0-0.9-0.1-1.3-0.3c-0.8-0.5-1.3-1.3-1.3-2.2v-98.5c0-0.9,0.5-1.8,1.3-2.2c0.8-0.5,1.8-0.5,2.6,0
			l85.3,49.3c0.8,0.5,1.3,1.3,1.3,2.2s-0.5,1.8-1.3,2.2l-85.3,49.3C400.1,911.1,399.7,911.2,399.2,911.2z M401.8,814.6v89.6
			l77.6-44.8L401.8,814.6z"/>
	</g>
	<g>
		<circle fill="#FFFFFF" cx="929.1" cy="810.1" r="107.4"/>
		<path d="M929.1,920.1c-60.7,0-110-49.4-110-110s49.4-110,110-110c60.7,0,110,49.4,110,110S989.7,920.1,929.1,920.1z M929.1,705.3
			c-57.8,0-104.9,47-104.9,104.8S871.3,915,929.1,915s104.8-47,104.8-104.8S986.9,705.3,929.1,705.3z"/>
	</g>
	<g>
		<g>
			<path fill="#FFFFFF" d="M308.5,839.2c0,24.4-19.8,44.2-44.2,44.2c-24.4,0-44.2-19.8-44.2-44.2s19.8-44.2,44.2-44.2
				C288.7,795.1,308.5,814.8,308.5,839.2z"/>
			<path d="M264.3,886c-25.8,0-46.8-21-46.8-46.8s21-46.8,46.8-46.8s46.8,21,46.8,46.8S290.1,886,264.3,886z M264.3,797.6
				c-22.9,0-41.6,18.7-41.6,41.6s18.7,41.6,41.6,41.6s41.6-18.7,41.6-41.6S287.2,797.6,264.3,797.6z"/>
		</g>
		<g>
			<path fill="#FFFFFF" d="M293.1,839.2c0,4.5-1,8.7-2.8,12.5"/>
			<path d="M290.2,854.3c-0.4,0-0.8-0.1-1.1-0.3c-1.3-0.6-1.8-2.2-1.2-3.4c1.7-3.6,2.6-7.4,2.6-11.3c0-1.4,1.2-2.6,2.6-2.6
				s2.6,1.2,2.6,2.6c0,4.8-1,9.3-3.1,13.6C292.1,853.8,291.2,854.3,290.2,854.3z"/>
		</g>
		<g>
			<path fill="#FFFFFF" d="M237.9,850.7c-1.5-3.5-2.4-7.4-2.4-11.4c0-15.9,12.9-28.8,28.8-28.8c4.6,0,9,1.1,12.9,3"/>
			<path d="M237.9,853.3c-1,0-1.9-0.6-2.4-1.6c-1.7-3.9-2.6-8.1-2.6-12.5c0-17.3,14.1-31.4,31.4-31.4c4.9,0,9.6,1.1,14,3.3
				c1.3,0.6,1.8,2.2,1.2,3.5c-0.6,1.3-2.2,1.8-3.5,1.2c-3.7-1.8-7.6-2.8-11.7-2.8c-14.4,0-26.2,11.8-26.2,26.2
				c0,3.6,0.7,7.1,2.2,10.4c0.6,1.3,0,2.8-1.3,3.4C238.6,853.2,238.2,853.3,237.9,853.3z"/>
		</g>
		<g>
			<line fill="#FFFFFF" x1="264.3" y1="839.2" x2="291.6" y2="820.1"/>
			<path d="M264.3,841.8c-0.8,0-1.6-0.4-2.1-1.1c-0.8-1.2-0.5-2.8,0.6-3.6l27.4-19.2c1.2-0.8,2.8-0.5,3.6,0.6
				c0.8,1.2,0.5,2.8-0.6,3.6l-27.4,19.2C265.3,841.7,264.8,841.8,264.3,841.8z"/>
		</g>
	</g>
	<g>
		<path d="M561,862h-27.1c-1.4,0-2.6-1.2-2.6-2.6c0-1.4,1.2-2.6,2.6-2.6H561c1.4,0,2.6,1.2,2.6,2.6C563.6,860.8,562.4,862,561,862z"
			/>
	</g>
	<g>
		<path d="M700,900.4H533.9c-1.4,0-2.6-1.2-2.6-2.6c0-1.4,1.2-2.6,2.6-2.6H700c1.4,0,2.6,1.2,2.6,2.6
			C702.6,899.2,701.4,900.4,700,900.4z"/>
	</g>
	<g>
		<path d="M475.7,152.3h-45.2c-1.4,0-2.6-1.2-2.6-2.6s1.2-2.6,2.6-2.6h45.2c1.4,0,2.6,1.2,2.6,2.6S477.2,152.3,475.7,152.3z"/>
	</g>
	<g>
		<path d="M606.2,92.7H430.5c-1.4,0-2.6-1.2-2.6-2.6c0-1.4,1.2-2.6,2.6-2.6h175.7c1.4,0,2.6,1.2,2.6,2.6
			C608.8,91.5,607.7,92.7,606.2,92.7z"/>
	</g>
	<g>
		<g>
			<polygon fill="#FFFFFF" points="879,797.7 929.1,821.6 979.1,797.7 929.1,773.8 			"/>
			<path d="M929.1,824.2c-0.4,0-0.8-0.1-1.1-0.3l-50-23.9c-0.9-0.4-1.5-1.3-1.5-2.3c0-1,0.6-1.9,1.5-2.3l50-23.9
				c0.7-0.3,1.5-0.3,2.2,0l50,23.9c0.9,0.4,1.5,1.3,1.5,2.3c0,1-0.6,1.9-1.5,2.3l-50,23.9C929.8,824.1,929.4,824.2,929.1,824.2z
				 M885,797.7l44,21l44-21l-44-21L885,797.7z"/>
		</g>
		<g>
			<polygon fill="#FFFFFF" points="879,797.7 879,858.1 929.1,882.1 929.1,821.6 			"/>
			<path d="M929.1,884.7c-0.4,0-0.8-0.1-1.1-0.3l-50-23.9c-0.9-0.4-1.5-1.3-1.5-2.3v-60.5c0-0.9,0.5-1.7,1.2-2.2
				c0.7-0.5,1.7-0.5,2.5-0.1l50,23.9c0.9,0.4,1.5,1.3,1.5,2.3v60.5c0,0.9-0.5,1.7-1.2,2.2C930,884.5,929.5,884.7,929.1,884.7z
				 M881.6,856.5l44.8,21.5v-54.7l-44.8-21.4V856.5z"/>
		</g>
		<g>
			<polygon fill="#FFFFFF" points="929.1,882.1 979.1,858.1 979.1,797.7 929.1,821.6 			"/>
			<path d="M929.1,884.7c-0.5,0-1-0.1-1.4-0.4c-0.8-0.5-1.2-1.3-1.2-2.2v-60.5c0-1,0.6-1.9,1.5-2.3l50-23.9c0.8-0.4,1.7-0.3,2.5,0.1
				c0.8,0.5,1.2,1.3,1.2,2.2v60.5c0,1-0.6,1.9-1.5,2.3l-50,23.9C929.8,884.6,929.4,884.7,929.1,884.7z M931.6,823.2V878l44.9-21.5
				v-54.7L931.6,823.2z"/>
		</g>
	</g>
	<g>
		<g>
			<polygon fill="#FFFFFF" points="879,706.2 929.1,730.2 979.1,706.2 929.1,682.3 			"/>
			<path d="M929.1,732.7c-0.4,0-0.8-0.1-1.1-0.3l-50-23.9c-0.9-0.4-1.5-1.3-1.5-2.3c0-1,0.6-1.9,1.5-2.3l50-23.9
				c0.7-0.3,1.5-0.3,2.2,0l50,23.9c0.9,0.4,1.5,1.3,1.5,2.3c0,1-0.6,1.9-1.5,2.3l-50,23.9C929.8,732.7,929.4,732.7,929.1,732.7z
				 M885,706.2l44,21l44-21l-44-21L885,706.2z"/>
		</g>
		<g>
			<polygon fill="#FFFFFF" points="879,706.2 879,766.7 929.1,790.6 929.1,730.2 			"/>
			<path d="M929.1,793.2c-0.4,0-0.8-0.1-1.1-0.3l-50-23.9c-0.9-0.4-1.5-1.3-1.5-2.3v-60.5c0-0.9,0.5-1.7,1.2-2.2
				c0.7-0.5,1.7-0.5,2.5-0.1l50,23.9c0.9,0.4,1.5,1.3,1.5,2.3v60.5c0,0.9-0.5,1.7-1.2,2.2C930,793.1,929.5,793.2,929.1,793.2z
				 M881.6,765.1l44.8,21.5v-54.7l-44.8-21.4V765.1z"/>
		</g>
		<g>
			<polygon fill="#FFFFFF" points="929.1,790.6 979.1,766.7 979.1,706.2 929.1,730.2 			"/>
			<path d="M929.1,793.2c-0.5,0-1-0.1-1.4-0.4c-0.8-0.5-1.2-1.3-1.2-2.2v-60.5c0-1,0.6-1.9,1.5-2.3l50-23.9c0.8-0.4,1.7-0.3,2.5,0.1
				c0.8,0.5,1.2,1.3,1.2,2.2v60.5c0,1-0.6,1.9-1.5,2.3l-50,23.9C929.8,793.1,929.4,793.2,929.1,793.2z M931.6,731.8v54.7l44.9-21.5
				v-54.7L931.6,731.8z"/>
		</g>
	</g>
</g>
</svg>
