<?xml version="1.0" encoding="utf-8"?>
<!-- Generator: Adobe Illustrator 16.0.0, SVG Export Plug-In . SVG Version: 6.00 Build 0)  -->
<!DOCTYPE svg PUBLIC "-//W3C//DTD SVG 1.1//EN" "http://www.w3.org/Graphics/SVG/1.1/DTD/svg11.dtd">
<svg version="1.1" id="Layer_1" xmlns="http://www.w3.org/2000/svg" xmlns:xlink="http://www.w3.org/1999/xlink" x="0px" y="0px"
	 width="1400px" height="980px" viewBox="0 0 1400 980" enable-background="new 0 0 1400 980" xml:space="preserve">
<g>
	<g>
		<g>
			<rect fill="#FFFFFF" width="1400" height="980"/>
		</g>
	</g>
	<g>
		<rect x="956.1" y="596.9" fill="#F1F2F2" width="361.4" height="37.1"/>
	</g>
	<g>
		<rect x="956.1" y="676.9" fill="#F1F2F2" width="361.4" height="37.1"/>
	</g>
	<g>
		<g>
			<path d="M1257.4,165h-156.1c-15.6,0-28.3-12.7-28.3-28.3c0-15.6,12.7-28.3,28.3-28.3h156.1c1.4,0,2.6,1.2,2.6,2.6
				c0,1.4-1.2,2.6-2.6,2.6h-156.1c-12.7,0-23.1,10.4-23.1,23.1c0,12.7,10.4,23.1,23.1,23.1h156.1c1.4,0,2.6,1.2,2.6,2.6
				S1258.8,165,1257.4,165z"/>
		</g>
		<g>
			<path fill="#51BFFF" d="M1101.3,162.4c-14.2,0-25.7-11.5-25.7-25.7v174.5c0,14.2,11.5,25.7,25.7,25.7h156.1v-25.7v-25.7v-123
				H1101.3z"/>
			<path d="M1257.4,339.5h-156.1c-15.6,0-28.3-12.7-28.3-28.3V136.7c0-1.4,1.2-2.6,2.6-2.6s2.6,1.2,2.6,2.6
				c0,12.7,10.4,23.1,23.1,23.1h156.1c1.4,0,2.6,1.2,2.6,2.6v174.5C1260,338.3,1258.8,339.5,1257.4,339.5z M1078.2,153v158.1
				c0,12.7,10.4,23.1,23.1,23.1h153.5V165h-153.5C1091.7,165,1083.3,160.3,1078.2,153z"/>
		</g>
		<g>
			<path d="M1214.7,201.5h-83.6c-1.4,0-2.6-1.2-2.6-2.6c0-1.4,1.2-2.6,2.6-2.6h83.6c1.4,0,2.6,1.2,2.6,2.6
				C1217.3,200.3,1216.1,201.5,1214.7,201.5z"/>
		</g>
		<g>
			<path d="M1192.3,229.3h-61.2c-1.4,0-2.6-1.2-2.6-2.6c0-1.4,1.2-2.6,2.6-2.6h61.2c1.4,0,2.6,1.2,2.6,2.6
				C1194.9,228.1,1193.8,229.3,1192.3,229.3z"/>
		</g>
		<g>
			<path d="M1257.4,130.4h-160.5c-1.4,0-2.6-1.2-2.6-2.6s1.2-2.6,2.6-2.6h160.5c1.4,0,2.6,1.2,2.6,2.6S1258.8,130.4,1257.4,130.4z"
				/>
		</g>
		<g>
			<path d="M1257.4,148.1h-160.5c-1.4,0-2.6-1.2-2.6-2.6c0-1.4,1.2-2.6,2.6-2.6h160.5c1.4,0,2.6,1.2,2.6,2.6
				C1260,147,1258.8,148.1,1257.4,148.1z"/>
		</g>
	</g>
	<g>
		<g>
			<path d="M834.3,566H611.5c-21.7,0-39.3-17.6-39.3-39.3c0-21.7,17.6-39.3,39.3-39.3h222.7c1.4,0,2.6,1.2,2.6,2.6s-1.2,2.6-2.6,2.6
				H611.5c-18.8,0-34.1,15.3-34.1,34.1c0,18.8,15.3,34.1,34.1,34.1h222.7c1.4,0,2.6,1.2,2.6,2.6S835.7,566,834.3,566z"/>
		</g>
		<g>
			<path fill="#51BFFF" d="M611.5,563.4c-20.3,0-36.7-16.4-36.7-36.7v248.9c0,20.3,16.4,36.7,36.7,36.7h222.7v-36.7v-36.7V563.4
				H611.5z"/>
			<path d="M834.3,814.9H611.5c-21.7,0-39.3-17.6-39.3-39.3V526.7c0-1.4,1.2-2.6,2.6-2.6c1.4,0,2.6,1.2,2.6,2.6
				c0,18.8,15.3,34.1,34.1,34.1h222.7c1.4,0,2.6,1.2,2.6,2.6v248.9C836.9,813.7,835.7,814.9,834.3,814.9z M577.5,546.2v229.4
				c0,18.8,15.3,34.1,34.1,34.1h220.1V566H611.5C597,566,584.3,558,577.5,546.2z"/>
		</g>
		<g>
			<path d="M773.4,618H654.1c-1.4,0-2.6-1.2-2.6-2.6c0-1.4,1.2-2.6,2.6-2.6h119.2c1.4,0,2.6,1.2,2.6,2.6
				C776,616.9,774.8,618,773.4,618z"/>
		</g>
		<g>
			<path d="M773.4,657.7H654.1c-1.4,0-2.6-1.2-2.6-2.6s1.2-2.6,2.6-2.6h119.2c1.4,0,2.6,1.2,2.6,2.6S774.8,657.7,773.4,657.7z"/>
		</g>
		<g>
			<path d="M834.3,516.7h-229c-1.4,0-2.6-1.2-2.6-2.6s1.2-2.6,2.6-2.6h229c1.4,0,2.6,1.2,2.6,2.6S835.7,516.7,834.3,516.7z"/>
		</g>
		<g>
			<path d="M834.3,541.9h-229c-1.4,0-2.6-1.2-2.6-2.6s1.2-2.6,2.6-2.6h229c1.4,0,2.6,1.2,2.6,2.6S835.7,541.9,834.3,541.9z"/>
		</g>
	</g>
	<g>
		<path fill="#F1F2F2" d="M1120.6,436.7c0,11.7-9.5,21.2-21.2,21.2c-11.7,0-21.2-9.5-21.2-21.2c0-11.7,9.5-21.2,21.2-21.2
			C1111.1,415.5,1120.6,425,1120.6,436.7z"/>
		<path d="M1099.4,460.5c-13.1,0-23.8-10.7-23.8-23.8c0-13.1,10.7-23.8,23.8-23.8c13.1,0,23.8,10.7,23.8,23.8
			C1123.2,449.8,1112.5,460.5,1099.4,460.5z M1099.4,418.1c-10.2,0-18.6,8.3-18.6,18.6c0,10.3,8.3,18.6,18.6,18.6
			c10.2,0,18.6-8.3,18.6-18.6C1118,426.5,1109.7,418.1,1099.4,418.1z"/>
	</g>
	<g>
		<path fill="#F1F2F2" d="M1267.9,436.7c0,11.7-9.5,21.2-21.2,21.2c-11.7,0-21.2-9.5-21.2-21.2c0-11.7,9.5-21.2,21.2-21.2
			C1258.4,415.5,1267.9,425,1267.9,436.7z"/>
		<path d="M1246.7,460.5c-13.1,0-23.8-10.7-23.8-23.8c0-13.1,10.7-23.8,23.8-23.8s23.8,10.7,23.8,23.8
			C1270.5,449.8,1259.8,460.5,1246.7,460.5z M1246.7,418.1c-10.2,0-18.6,8.3-18.6,18.6c0,10.3,8.3,18.6,18.6,18.6
			s18.6-8.3,18.6-18.6C1265.3,426.5,1256.9,418.1,1246.7,418.1z"/>
	</g>
	<g>
		<path d="M1031.9,244.2c-1,0-2-0.6-2.4-1.7l-16-42.2h-69c-1.4,0-2.6-1.2-2.6-2.6c0-1.4,1.2-2.6,2.6-2.6h70.8c1.1,0,2,0.7,2.4,1.7
			l16.6,43.9c0.5,1.3-0.2,2.8-1.5,3.4C1032.5,244.1,1032.2,244.2,1031.9,244.2z"/>
	</g>
	<g>
		<path fill="#FFFFFF" d="M1275.7,241.6h-229.2h-2.8h-11.8l3.2,11.3c0,0,0,0,0,0l35.9,125.8c1.8,6.2,8.5,11.3,15,11.3h172
			c6.5,0,12.4-5.3,13.2-11.7l14.9-125.1C1286.9,246.8,1282.2,241.6,1275.7,241.6z"/>
		<path d="M1258,392.7h-172c-7.6,0-15.5-5.9-17.5-13.2l-35.8-125.7c0,0,0-0.1,0-0.1l-3.2-11.3c-0.2-0.8-0.1-1.6,0.4-2.3
			c0.5-0.6,1.3-1,2.1-1h243.8c3.9,0,7.4,1.5,9.9,4.3c2.5,2.8,3.6,6.5,3.1,10.3l-14.9,125.1C1272.8,386.4,1265.8,392.7,1258,392.7z
			 M1037.6,252.2l35.9,125.8c1.5,5.1,7.2,9.5,12.5,9.5h172c5.1,0,10-4.3,10.6-9.4l14.9-125.1c0.3-2.4-0.4-4.6-1.8-6.2
			c-1.5-1.7-3.6-2.6-6-2.6h-240.4l2.3,7.9C1037.6,252.1,1037.6,252.2,1037.6,252.2z"/>
	</g>
	<g>
		<g>
			<path d="M1317.6,524.7h-316.9c-1.4,0-2.6-1.2-2.6-2.6s1.2-2.6,2.6-2.6h316.9c1.4,0,2.6,1.2,2.6,2.6S1319,524.7,1317.6,524.7z"/>
		</g>
		<g>
			<rect x="1053.9" y="522.1" fill="#F1F2F2" width="210.4" height="42.2"/>
			<path d="M1264.3,566.9h-210.4c-1.4,0-2.6-1.2-2.6-2.6v-42.2c0-1.4,1.2-2.6,2.6-2.6h210.4c1.4,0,2.6,1.2,2.6,2.6v42.2
				C1266.9,565.7,1265.7,566.9,1264.3,566.9z M1056.5,561.7h205.2v-37h-205.2V561.7z"/>
		</g>
		<g>
			<polygon fill="#51BFFF" points="1159.1,631.5 1233.9,631.5 1233.9,564.3 1084.3,564.3 1084.3,631.5 1159.1,631.5 			"/>
			<path d="M1233.9,634.1h-149.6c-1.4,0-2.6-1.2-2.6-2.6v-67.3c0-1.4,1.2-2.6,2.6-2.6h149.6c1.4,0,2.6,1.2,2.6,2.6v67.3
				C1236.5,633,1235.3,634.1,1233.9,634.1z M1086.9,628.9h144.4v-62.1h-144.4V628.9z"/>
		</g>
		<g>
			<path fill="#FFFFFF" d="M1233.9,631.5h-74.8h0h-74.8v91.4c0,0,45.6,29,65.4,107.5c-5.6,3.3-9.4,9.3-9.4,16.2
				c0,10.4,8.4,18.8,18.8,18.8c10.4,0,18.8-8.4,18.8-18.8c0-6.9-3.8-12.9-9.4-16.2c19.8-78.5,65.4-107.5,65.4-107.5L1233.9,631.5
				L1233.9,631.5z"/>
			<path d="M1159.1,868c-11.8,0-21.4-9.6-21.4-21.4c0-7,3.3-13.3,9-17.4c-19.6-75.3-63.3-103.9-63.8-104.2c-0.8-0.5-1.2-1.3-1.2-2.2
				v-91.4c0-1.4,1.2-2.6,2.6-2.6h149.6c1.4,0,2.6,1.2,2.6,2.6l0,91.4c0,0.9-0.5,1.7-1.2,2.2c-0.4,0.3-44.3,29-63.8,104.2
				c5.6,4,9,10.5,9,17.4C1180.5,858.4,1170.9,868,1159.1,868z M1086.9,721.5c7.6,5.3,47,35.8,65.3,108.3c0.3,1.1-0.2,2.3-1.2,2.9
				c-5.1,3-8.1,8.2-8.1,13.9c0,8.9,7.3,16.2,16.2,16.2c8.9,0,16.2-7.3,16.2-16.2c0-5.8-3-11-8.1-13.9c-1-0.6-1.5-1.8-1.2-2.9
				c18.3-72.4,57.7-103,65.3-108.3v-87.4h-144.4V721.5z"/>
		</g>
		<g>
			<path d="M1159.1,692.6c-1.4,0-2.6-1.2-2.6-2.6v-58.5c0-1.4,1.2-2.6,2.6-2.6s2.6,1.2,2.6,2.6V690
				C1161.7,691.4,1160.5,692.6,1159.1,692.6z"/>
		</g>
		<g>
			<circle fill="#FFFFFF" cx="1159.1" cy="707.7" r="17.7"/>
			<path d="M1159.1,728c-11.2,0-20.3-9.1-20.3-20.3c0-11.2,9.1-20.3,20.3-20.3c11.2,0,20.3,9.1,20.3,20.3
				C1179.4,718.9,1170.3,728,1159.1,728z M1159.1,692.6c-8.3,0-15.1,6.8-15.1,15.1c0,8.3,6.8,15.1,15.1,15.1
				c8.3,0,15.1-6.8,15.1-15.1C1174.2,699.4,1167.4,692.6,1159.1,692.6z"/>
		</g>
	</g>
	<g>
		<path fill="#F1F2F2" d="M874.3,387.4V180.8c0-14.2-11.5-25.7-25.7-25.7h-290c-14.2,0-25.7,11.5-25.7,25.7v206.6H874.3z"/>
		<path d="M874.3,390H532.9c-1.4,0-2.6-1.2-2.6-2.6V180.8c0-15.6,12.7-28.3,28.3-28.3h290c15.6,0,28.3,12.7,28.3,28.3v206.6
			C876.9,388.8,875.7,390,874.3,390z M535.5,384.8h336.2v-204c0-12.7-10.4-23.1-23.1-23.1h-290c-12.7,0-23.1,10.4-23.1,23.1V384.8z"
			/>
	</g>
	<g>
		<path fill="#FFFFFF" d="M554.3,366V180.8c0-2.4,1.9-4.3,4.3-4.3h290c2.4,0,4.3,1.9,4.3,4.3V366H554.3z"/>
		<path d="M852.9,368.6H554.3c-1.4,0-2.6-1.2-2.6-2.6V180.8c0-3.8,3.1-6.9,6.9-6.9h290c3.8,0,6.9,3.1,6.9,6.9V366
			C855.5,367.4,854.3,368.6,852.9,368.6z M556.9,363.4h293.4V180.8c0-0.9-0.8-1.7-1.7-1.7h-290c-0.9,0-1.7,0.8-1.7,1.7V363.4z"/>
	</g>
	<g>
		<path fill="#FFFFFF" d="M480.8,387.4v7.5c0,14.2,11.5,25.7,25.7,25.7h394.1c14.2,0,25.7-11.5,25.7-25.7v-7.5H480.8z"/>
		<path d="M900.6,423.2H506.5c-15.6,0-28.3-12.7-28.3-28.3v-7.5c0-1.4,1.2-2.6,2.6-2.6h445.5c1.4,0,2.6,1.2,2.6,2.6v7.5
			C928.9,410.5,916.2,423.2,900.6,423.2z M483.4,390v4.9c0,12.7,10.4,23.1,23.1,23.1h394.1c12.7,0,23.1-10.4,23.1-23.1V390H483.4z"
			/>
	</g>
	<g>
		<path fill="#FFFFFF" d="M649.7,387.4v3.6c0,6.9,5.6,12.4,12.4,12.4H745c6.9,0,12.4-5.6,12.4-12.4v-3.6H649.7z"/>
		<path d="M745,406.1h-82.9c-8.3,0-15-6.7-15-15v-3.6c0-1.4,1.2-2.6,2.6-2.6h107.7c1.4,0,2.6,1.2,2.6,2.6v3.6
			C760,399.3,753.3,406.1,745,406.1z M652.3,390v1c0,5.4,4.4,9.8,9.8,9.8H745c5.4,0,9.8-4.4,9.8-9.8v-1H652.3z"/>
	</g>
	<g>
		<g>
			<path d="M574.9,242.7c-0.4,0-0.8-0.1-1.1-0.3c-1.3-0.6-1.8-2.2-1.2-3.5l21.5-44.7c0.9-1.8,3.8-1.8,4.7,0l21.5,44.7
				c0.6,1.3,0.1,2.8-1.2,3.5c-1.3,0.6-2.8,0.1-3.5-1.2l-19.2-39.8l-19.2,39.8C576.8,242.2,575.8,242.7,574.9,242.7z"/>
		</g>
		<g>
			<path d="M609.7,225.5h-26.6c-1.4,0-2.6-1.2-2.6-2.6s1.2-2.6,2.6-2.6h26.6c1.4,0,2.6,1.2,2.6,2.6S611.1,225.5,609.7,225.5z"/>
		</g>
	</g>
	<g>
		<path d="M828.6,204.7H636.6c-1.4,0-2.6-1.2-2.6-2.6s1.2-2.6,2.6-2.6h192.1c1.4,0,2.6,1.2,2.6,2.6S830.1,204.7,828.6,204.7z"/>
	</g>
	<g>
		<path d="M828.6,237.1H636.6c-1.4,0-2.6-1.2-2.6-2.6s1.2-2.6,2.6-2.6h192.1c1.4,0,2.6,1.2,2.6,2.6S830.1,237.1,828.6,237.1z"/>
	</g>
	<g>
		<path d="M828.6,269.4H582.4c-1.4,0-2.6-1.2-2.6-2.6c0-1.4,1.2-2.6,2.6-2.6h246.2c1.4,0,2.6,1.2,2.6,2.6
			C831.2,268.3,830.1,269.4,828.6,269.4z"/>
	</g>
	<g>
		<path d="M828.6,301.8H582.4c-1.4,0-2.6-1.2-2.6-2.6s1.2-2.6,2.6-2.6h246.2c1.4,0,2.6,1.2,2.6,2.6S830.1,301.8,828.6,301.8z"/>
	</g>
	<g>
		<path d="M828.6,334.1H582.4c-1.4,0-2.6-1.2-2.6-2.6s1.2-2.6,2.6-2.6h246.2c1.4,0,2.6,1.2,2.6,2.6S830.1,334.1,828.6,334.1z"/>
	</g>
	<g>
		<circle fill="#FFFFFF" cx="816.1" cy="782" r="92"/>
		<path d="M816.1,876.6c-52.2,0-94.6-42.4-94.6-94.6c0-52.2,42.4-94.6,94.6-94.6s94.6,42.4,94.6,94.6
			C910.7,834.2,868.2,876.6,816.1,876.6z M816.1,692.6c-49.3,0-89.4,40.1-89.4,89.4s40.1,89.4,89.4,89.4s89.4-40.1,89.4-89.4
			S865.4,692.6,816.1,692.6z"/>
	</g>
	<g>
		<path d="M719.8,698.1h-65.7c-1.4,0-2.6-1.2-2.6-2.6s1.2-2.6,2.6-2.6h65.7c1.4,0,2.6,1.2,2.6,2.6S721.2,698.1,719.8,698.1z"/>
	</g>
	<g>
		<polygon fill="#F1F2F2" points="1240,368.4 1110,368.4 1087.6,276.7 1250.6,274.4 		"/>
	</g>
	<g>
		<path d="M1304.9,290.5h-224.1c-1.4,0-2.6-1.2-2.6-2.6s1.2-2.6,2.6-2.6h224.1c1.4,0,2.6,1.2,2.6,2.6S1306.4,290.5,1304.9,290.5z"/>
	</g>
	<g>
		<path d="M1301.5,324.4h-180.9c-1.4,0-2.6-1.2-2.6-2.6c0-1.4,1.2-2.6,2.6-2.6h180.9c1.4,0,2.6,1.2,2.6,2.6
			C1304.1,323.2,1302.9,324.4,1301.5,324.4z"/>
	</g>
	<g>
		<path d="M1296.6,359.3h-134.9c-1.4,0-2.6-1.2-2.6-2.6s1.2-2.6,2.6-2.6h134.9c1.4,0,2.6,1.2,2.6,2.6S1298,359.3,1296.6,359.3z"/>
	</g>
	<g>
		<path d="M1236.2,382.5c-0.1,0-0.2,0-0.3,0c-1.4-0.2-2.4-1.5-2.3-2.9l14.4-120.2c0.2-1.4,1.5-2.5,2.9-2.3c1.4,0.2,2.4,1.5,2.3,2.9
			l-14.4,120.2C1238.6,381.6,1237.5,382.5,1236.2,382.5z"/>
	</g>
	<g>
		<g>
			<path d="M792.8,836.2c-1.4,0-2.6-1.2-2.6-2.6V730.4c0-1.4,1.2-2.6,2.6-2.6c1.4,0,2.6,1.2,2.6,2.6v103.2
				C795.4,835,794.2,836.2,792.8,836.2z"/>
		</g>
		<g>
			<path d="M839.4,836.2c-1.4,0-2.6-1.2-2.6-2.6V730.4c0-1.4,1.2-2.6,2.6-2.6s2.6,1.2,2.6,2.6v103.2
				C842,835,840.8,836.2,839.4,836.2z"/>
		</g>
		<g>
			<path d="M867.7,761.3H764.5c-1.4,0-2.6-1.2-2.6-2.6s1.2-2.6,2.6-2.6h103.2c1.4,0,2.6,1.2,2.6,2.6S869.1,761.3,867.7,761.3z"/>
		</g>
		<g>
			<path d="M867.7,807.9H764.5c-1.4,0-2.6-1.2-2.6-2.6c0-1.4,1.2-2.6,2.6-2.6h103.2c1.4,0,2.6,1.2,2.6,2.6
				C870.3,806.7,869.1,807.9,867.7,807.9z"/>
		</g>
	</g>
	<g>
		<g>
			<path d="M376.9,249.7c-21.7,0-39.3-17.7-39.3-39.3l8.5-85.9c0.1-1.3,1.3-2.3,2.6-2.3h56.6c1.3,0,2.5,1,2.6,2.3l8.5,85.6
				C416.3,232.1,398.6,249.7,376.9,249.7z M351,127.3l-8.2,83.3c0,18.6,15.3,33.9,34.2,33.9c18.8,0,34.2-15.3,34.2-34.1l-8.2-83H351
				z"/>
		</g>
		<g>
			<path d="M376.9,233.2c-1.4,0-2.6-1.2-2.6-2.6V116.9c0-1.4,1.2-2.6,2.6-2.6s2.6,1.2,2.6,2.6v113.8
				C379.5,232,378.3,233.2,376.9,233.2z"/>
		</g>
		<g>
			<path d="M395.8,227.6c-1.4,0-2.5-1.1-2.6-2.5L389,117c-0.1-1.4,1.1-2.6,2.5-2.7c1.4,0,2.6,1.1,2.7,2.5l4.2,108.1
				c0.1,1.4-1.1,2.6-2.5,2.7C395.9,227.6,395.8,227.6,395.8,227.6z"/>
		</g>
		<g>
			<path d="M358,227.6c0,0-0.1,0-0.1,0c-1.4-0.1-2.6-1.3-2.5-2.7l4.2-108.1c0.1-1.4,1.4-2.5,2.7-2.5c1.4,0.1,2.6,1.3,2.5,2.7
				l-4.2,108.1C360.6,226.5,359.4,227.6,358,227.6z"/>
		</g>
		<g>
			<path fill="#51BFFF" d="M377.3,350.6c-16.1,0-30.1-9.1-37.2-22.4v79.7v1.9c0,20.3,16.4,36.7,36.7,36.7
				c20.3,0,36.8-16.4,36.8-36.7v-1.9v-78.3C406.4,342.1,392.9,350.6,377.3,350.6z"/>
			<path d="M376.9,449.1c-21.7,0-39.3-17.7-39.3-39.3v-81.6c0-1.2,0.8-2.2,2-2.5c1.2-0.3,2.4,0.2,2.9,1.3c6.9,13,20.2,21,34.9,21
				c14,0,27-7.5,34.1-19.7c0.6-1,1.8-1.5,2.9-1.2c1.1,0.3,1.9,1.3,1.9,2.5v80.1C416.3,431.4,398.6,449.1,376.9,449.1z M342.8,336.8
				v73c0,18.8,15.3,34.1,34.1,34.1c18.8,0,34.2-15.3,34.2-34.1v-72c-8.4,9.7-20.7,15.5-33.7,15.5
				C363.7,353.2,351.1,347.1,342.8,336.8z"/>
		</g>
		<g>
			<path d="M377.3,353.2c-16.6,0-31.7-9.1-39.5-23.8c-0.2-0.4-0.3-0.8-0.3-1.2v-48.8c0-1.2,0.8-2.2,2-2.5c1.2-0.3,2.4,0.3,2.9,1.3
				c0.8,1.5,1.7,3,2.8,4.5c7.4,10.3,19.4,16.5,32,16.5c12.7,0,24.6-6.2,32-16.5c0.7-1,1.4-2.1,2-3.2c0.6-1,1.8-1.5,2.9-1.2
				c1.1,0.3,1.9,1.3,1.9,2.5v48.8c0,0.5-0.1,0.9-0.4,1.3C407.9,344.7,393.1,353.2,377.3,353.2z M342.8,327.5
				c6.9,12.6,20.1,20.5,34.6,20.5c13.8,0,26.6-7.3,33.7-19.1v-40c-8.4,9.8-20.8,15.5-33.7,15.5c-13.4,0-26.1-6.1-34.6-16.5V327.5z"
				/>
		</g>
		<g>
			<path fill="#51BFFF" d="M407.6,230.7c-6.6,9.9-17.8,16.5-30.6,16.5c-12.6,0-23.7-6.3-30.3-16c-4.1-5.9-6.4-13.1-6.4-20.8v29.8
				v39.2c0.9,1.7,1.9,3.3,3,4.8c7.6,10.7,20.1,17.6,34.2,17.6s26.5-7,34.2-17.6c0.8-1.1,1.5-2.2,2.2-3.4v-42.1v-28.4
				C413.7,217.9,411.4,224.8,407.6,230.7z"/>
			<path d="M377.3,304.4c-14.3,0-27.9-7-36.3-18.7c-1.3-1.8-2.3-3.4-3.2-5.1c-0.2-0.4-0.3-0.8-0.3-1.2v-69c0-1.4,1.2-2.6,2.6-2.6
				s2.6,1.2,2.6,2.6c0,6.9,2.1,13.6,6,19.3c6.4,9.3,16.9,14.8,28.2,14.8c11.5,0,22.1-5.7,28.5-15.3c3.7-5.6,5.7-12.1,5.7-18.8
				c0-1.4,1.2-2.6,2.6-2.6c1.4,0,2.6,1.2,2.6,2.6v70.4c0,0.5-0.1,0.9-0.4,1.3c-0.7,1.2-1.5,2.4-2.3,3.6
				C405.2,297.4,391.7,304.4,377.3,304.4z M342.8,278.7c0.7,1.3,1.5,2.6,2.5,4c7.4,10.4,19.4,16.5,32,16.5c12.7,0,24.6-6.2,32-16.5
				c0.6-0.8,1.2-1.7,1.7-2.6v-50.2c-0.4,0.7-0.9,1.5-1.3,2.2c-7.3,11-19.6,17.6-32.8,17.6c-13,0-25.1-6.4-32.4-17.1
				c-0.6-0.9-1.2-1.8-1.7-2.7V278.7z"/>
		</g>
	</g>
	<g>
		<g>
			<path d="M266.3,249.7c-21.7,0-39.3-17.7-39.3-39.3l8.5-85.9c0.1-1.3,1.3-2.3,2.6-2.3h56.6c1.3,0,2.5,1,2.6,2.3l8.5,85.6
				C305.6,232.1,288,249.7,266.3,249.7z M240.3,127.3l-8.2,83.3c0,18.6,15.3,33.9,34.2,33.9c18.8,0,34.2-15.3,34.2-34.1l-8.2-83
				H240.3z"/>
		</g>
		<g>
			<path d="M266.3,233.2c-1.4,0-2.6-1.2-2.6-2.6V116.9c0-1.4,1.2-2.6,2.6-2.6s2.6,1.2,2.6,2.6v113.8
				C268.9,232,267.7,233.2,266.3,233.2z"/>
		</g>
		<g>
			<path d="M285.2,227.6c-1.4,0-2.5-1.1-2.6-2.5L278.4,117c-0.1-1.4,1.1-2.6,2.5-2.7c1.4,0,2.6,1.1,2.7,2.5l4.2,108.1
				c0.1,1.4-1.1,2.6-2.5,2.7C285.2,227.6,285.2,227.6,285.2,227.6z"/>
		</g>
		<g>
			<path d="M247.4,227.6c0,0-0.1,0-0.1,0c-1.4-0.1-2.6-1.3-2.5-2.7l4.2-108.1c0.1-1.4,1.4-2.5,2.7-2.5c1.4,0.1,2.6,1.3,2.5,2.7
				L250,225.1C249.9,226.5,248.8,227.6,247.4,227.6z"/>
		</g>
		<g>
			<path fill="#51BFFF" d="M266.7,350.6c-16.1,0-30.1-9.1-37.2-22.4v79.7v1.9c0,20.3,16.5,36.7,36.7,36.7
				c20.3,0,36.8-16.4,36.8-36.7v-1.9v-78.3C295.7,342.1,282.2,350.6,266.7,350.6z"/>
			<path d="M266.3,449.1c-21.7,0-39.3-17.7-39.3-39.3v-81.6c0-1.2,0.8-2.2,2-2.5c1.2-0.3,2.4,0.2,2.9,1.3c6.9,13,20.2,21,34.9,21
				c14,0,27-7.5,34.1-19.7c0.6-1,1.8-1.5,2.9-1.2c1.1,0.3,1.9,1.3,1.9,2.5v80.1C305.6,431.4,288,449.1,266.3,449.1z M232.1,336.8v73
				c0,18.8,15.3,34.1,34.1,34.1c18.8,0,34.2-15.3,34.2-34.1v-72c-8.4,9.7-20.7,15.5-33.7,15.5C253.1,353.2,240.5,347.1,232.1,336.8z
				"/>
		</g>
		<g>
			<path d="M266.7,353.2c-16.6,0-31.7-9.1-39.5-23.8c-0.2-0.4-0.3-0.8-0.3-1.2v-48.8c0-1.2,0.8-2.2,2-2.5c1.2-0.3,2.4,0.2,2.9,1.3
				c0.8,1.5,1.8,3,2.8,4.5c7.4,10.4,19.4,16.5,32,16.5c12.7,0,24.6-6.2,32.1-16.5c0.7-1,1.4-2.1,2-3.2c0.6-1,1.8-1.5,2.9-1.2
				c1.1,0.3,1.9,1.3,1.9,2.5v48.8c0,0.5-0.1,0.9-0.4,1.3C297.3,344.7,282.5,353.2,266.7,353.2z M232.1,327.5
				c6.9,12.6,20.1,20.5,34.6,20.5c13.8,0,26.6-7.3,33.7-19.1v-40c-8.4,9.8-20.8,15.5-33.7,15.5c-13.4,0-26.1-6.1-34.6-16.5V327.5z"
				/>
		</g>
		<g>
			<path fill="#51BFFF" d="M296.9,230.7c-6.6,9.9-17.8,16.5-30.7,16.5c-12.6,0-23.7-6.3-30.3-16c-4.1-5.9-6.5-13.1-6.5-20.8v29.8
				v39.2c0.9,1.7,1.9,3.3,3,4.8c7.6,10.7,20.1,17.6,34.2,17.6c14.1,0,26.5-7,34.2-17.6c0.8-1.1,1.5-2.2,2.2-3.4v-42.1v-28.4
				C303,217.9,300.8,224.8,296.9,230.7z"/>
			<path d="M266.7,304.4c-14.3,0-27.9-7-36.3-18.7c-1.2-1.7-2.3-3.4-3.2-5.1c-0.2-0.4-0.3-0.8-0.3-1.2v-69c0-1.4,1.2-2.6,2.6-2.6
				c1.4,0,2.6,1.2,2.6,2.6c0,6.9,2.1,13.6,6,19.3c6.4,9.3,16.9,14.8,28.2,14.8c11.5,0,22.1-5.7,28.5-15.3c3.7-5.6,5.7-12.1,5.7-18.8
				c0-1.4,1.2-2.6,2.6-2.6s2.6,1.2,2.6,2.6v70.4c0,0.5-0.1,0.9-0.4,1.3c-0.7,1.2-1.5,2.4-2.3,3.6C294.6,297.4,281,304.4,266.7,304.4
				z M232.1,278.7c0.7,1.3,1.6,2.7,2.5,4c7.4,10.4,19.4,16.5,32,16.5c12.7,0,24.6-6.2,32.1-16.5c0.6-0.8,1.2-1.7,1.7-2.6v-50.2
				c-0.4,0.7-0.9,1.4-1.3,2.2c-7.3,11-19.6,17.6-32.8,17.6c-13,0-25.1-6.4-32.4-17.1c-0.6-0.9-1.2-1.8-1.7-2.7V278.7z"/>
		</g>
	</g>
	<g>
		<g>
			<path d="M155.6,249.7c-21.7,0-39.3-17.7-39.3-39.3l8.5-85.9c0.1-1.3,1.2-2.3,2.6-2.3h56.6c1.3,0,2.5,1,2.6,2.3l8.5,85.6
				C195,232.1,177.3,249.7,155.6,249.7z M129.7,127.3l-8.2,83.3c0,18.6,15.3,33.9,34.2,33.9c18.8,0,34.1-15.3,34.1-34.1l-8.2-83
				H129.7z"/>
		</g>
		<g>
			<path d="M155.6,233.2c-1.4,0-2.6-1.2-2.6-2.6V116.9c0-1.4,1.2-2.6,2.6-2.6c1.4,0,2.6,1.2,2.6,2.6v113.8
				C158.2,232,157.1,233.2,155.6,233.2z"/>
		</g>
		<g>
			<path d="M174.5,227.6c-1.4,0-2.5-1.1-2.6-2.5L167.8,117c-0.1-1.4,1.1-2.6,2.5-2.7c1.4,0,2.6,1.1,2.7,2.5l4.2,108.1
				c0.1,1.4-1.1,2.6-2.5,2.7C174.6,227.6,174.6,227.6,174.5,227.6z"/>
		</g>
		<g>
			<path d="M136.7,227.6c0,0-0.1,0-0.1,0c-1.4-0.1-2.6-1.3-2.5-2.7l4.2-108.1c0.1-1.4,1.4-2.5,2.7-2.5c1.4,0.1,2.6,1.3,2.5,2.7
				l-4.2,108.1C139.3,226.5,138.1,227.6,136.7,227.6z"/>
		</g>
		<g>
			<path fill="#51BFFF" d="M156,350.6c-16.1,0-30.1-9.1-37.2-22.4v79.7v1.9c0,20.3,16.5,36.7,36.7,36.7c20.3,0,36.7-16.4,36.7-36.7
				v-1.9v-78.3C185.1,342.1,171.6,350.6,156,350.6z"/>
			<path d="M155.6,449.1c-21.7,0-39.3-17.7-39.3-39.3v-81.6c0-1.2,0.8-2.2,2-2.5c1.2-0.3,2.4,0.2,2.9,1.3c6.9,13,20.2,21,34.9,21
				c14,0,27-7.5,34.1-19.7c0.6-1,1.8-1.5,2.9-1.2c1.1,0.3,1.9,1.3,1.9,2.5v80.1C195,431.4,177.3,449.1,155.6,449.1z M121.5,336.8v73
				c0,18.8,15.3,34.1,34.1,34.1c18.8,0,34.1-15.3,34.1-34.1v-72c-8.4,9.7-20.7,15.5-33.7,15.5C142.5,353.2,129.9,347.1,121.5,336.8z
				"/>
		</g>
		<g>
			<path d="M156,353.2c-16.6,0-31.7-9.1-39.5-23.8c-0.2-0.4-0.3-0.8-0.3-1.2v-48.8c0-1.2,0.8-2.2,2-2.5c1.2-0.3,2.4,0.2,2.9,1.3
				c0.8,1.5,1.7,3,2.8,4.5c7.4,10.4,19.4,16.5,32,16.5s24.6-6.2,32-16.5c0.7-1,1.4-2.1,2-3.2c0.6-1,1.8-1.5,2.9-1.2
				c1.1,0.3,1.9,1.3,1.9,2.5v48.8c0,0.5-0.1,0.9-0.4,1.3C186.6,344.7,171.9,353.2,156,353.2z M121.5,327.5
				c6.9,12.6,20.1,20.5,34.6,20.5c13.8,0,26.6-7.3,33.7-19.1v-40c-8.4,9.8-20.8,15.5-33.7,15.5c-13.4,0-26.1-6.1-34.6-16.5V327.5z"
				/>
		</g>
		<g>
			<path fill="#51BFFF" d="M186.3,230.7c-6.6,9.9-17.8,16.5-30.6,16.5c-12.6,0-23.7-6.3-30.3-16c-4.1-5.9-6.5-13.1-6.5-20.8v29.8
				v39.2c0.9,1.7,1.9,3.3,3,4.8c7.6,10.7,20.1,17.6,34.2,17.6c14.1,0,26.5-7,34.2-17.6c0.8-1.1,1.5-2.2,2.2-3.4v-42.1v-28.4
				C192.4,217.9,190.1,224.8,186.3,230.7z"/>
			<path d="M156,304.4c-14.3,0-27.9-7-36.3-18.7c-1.2-1.7-2.3-3.4-3.2-5.1c-0.2-0.4-0.3-0.8-0.3-1.2v-69c0-1.4,1.2-2.6,2.6-2.6
				s2.6,1.2,2.6,2.6c0,6.9,2.1,13.6,6,19.3c6.4,9.3,16.9,14.8,28.2,14.8c11.5,0,22.1-5.7,28.5-15.3c3.7-5.6,5.7-12.1,5.7-18.8
				c0-1.4,1.2-2.6,2.6-2.6s2.6,1.2,2.6,2.6v70.4c0,0.5-0.1,0.9-0.4,1.3c-0.7,1.2-1.5,2.4-2.3,3.6C183.9,297.4,170.4,304.4,156,304.4
				z M121.5,278.7c0.7,1.3,1.6,2.6,2.5,4c7.4,10.4,19.4,16.5,32,16.5s24.6-6.2,32-16.5c0.6-0.8,1.2-1.7,1.7-2.6v-50.2
				c-0.4,0.7-0.9,1.5-1.3,2.2c-7.3,11-19.6,17.6-32.8,17.6c-13,0-25.1-6.4-32.4-17.1c-0.6-0.9-1.2-1.8-1.7-2.7V278.7z"/>
		</g>
	</g>
	<g>
		<g>
			<g>
				<rect x="144.4" y="596.2" fill="#51BFFF" width="277.8" height="233.6"/>
				<path d="M422.2,832.4H144.4c-1.4,0-2.6-1.2-2.6-2.6V596.2c0-1.4,1.2-2.6,2.6-2.6h277.8c1.4,0,2.6,1.2,2.6,2.6v233.6
					C424.8,831.2,423.6,832.4,422.2,832.4z M147,827.2h272.6V598.8H147V827.2z"/>
			</g>
			<g>
				<path fill="#FFFFFF" d="M427.2,829.8c16.7,0,30.2-13.5,30.2-30.2V626.4c0-16.7-13.5-30.2-30.2-30.2h-5v233.6H427.2z"/>
				<path d="M427.2,832.4h-5c-1.4,0-2.6-1.2-2.6-2.6V596.2c0-1.4,1.2-2.6,2.6-2.6h5c18.1,0,32.8,14.7,32.8,32.8v173.2
					C460,817.7,445.3,832.4,427.2,832.4z M424.8,827.2h2.4c15.2,0,27.6-12.4,27.6-27.6V626.4c0-15.2-12.4-27.6-27.6-27.6h-2.4V827.2
					z"/>
			</g>
			<g>
				<path fill="#FFFFFF" d="M114.2,626.4v173.2c0,16.7,13.5,30.2,30.2,30.2V596.2C127.7,596.2,114.2,609.7,114.2,626.4z"/>
				<path d="M144.4,832.4c-18.1,0-32.8-14.7-32.8-32.8V626.4c0-18.1,14.7-32.8,32.8-32.8c1.4,0,2.6,1.2,2.6,2.6v233.6
					C147,831.2,145.8,832.4,144.4,832.4z M141.8,598.9c-14,1.3-25,13.1-25,27.5v173.2c0,14.3,11,26.2,25,27.5V598.9z"/>
			</g>
		</g>
		<g>
			<line fill="#FFFFFF" x1="439.8" y1="736.8" x2="439.8" y2="689.1"/>
			<path d="M439.8,739.4c-1.4,0-2.6-1.2-2.6-2.6v-47.7c0-1.4,1.2-2.6,2.6-2.6c1.4,0,2.6,1.2,2.6,2.6v47.7
				C442.4,738.3,441.2,739.4,439.8,739.4z"/>
		</g>
		<g>
			<polygon fill="#FFFFFF" points="334.5,518.3 184.5,518.3 184.5,829.8 380,829.8 380,563.8 			"/>
			<path d="M380,832.4H184.5c-1.4,0-2.6-1.2-2.6-2.6V518.3c0-1.4,1.2-2.6,2.6-2.6h150c0.7,0,1.4,0.3,1.8,0.8l45.5,45.5
				c0.5,0.5,0.8,1.1,0.8,1.8v266C382.6,831.2,381.4,832.4,380,832.4z M187.1,827.2h190.3V564.9l-44-44H187.1V827.2z"/>
		</g>
		<g>
			<polygon fill="#FFFFFF" points="334.5,563.8 380,563.8 334.5,518.3 			"/>
			<path d="M380,566.4h-45.5c-1.4,0-2.6-1.2-2.6-2.6v-45.5c0-1.1,0.6-2,1.6-2.4c1-0.4,2.1-0.2,2.8,0.6l45.5,45.5
				c0.7,0.7,1,1.9,0.6,2.8C382,565.8,381,566.4,380,566.4z M337.1,561.2h36.6l-36.6-36.6V561.2z"/>
		</g>
		<g>
			<g>
				<path d="M208,588.9c-0.4,0-0.8-0.1-1.1-0.3c-1.3-0.6-1.8-2.2-1.2-3.5l21.3-44.3c0.9-1.8,3.8-1.8,4.7,0l21.3,44.3
					c0.6,1.3,0.1,2.8-1.2,3.5c-1.3,0.6-2.8,0.1-3.5-1.2l-19-39.4l-19,39.4C209.9,588.3,208.9,588.9,208,588.9z"/>
			</g>
			<g>
				<path d="M242.5,571.8h-26.4c-1.4,0-2.6-1.2-2.6-2.6s1.2-2.6,2.6-2.6h26.4c1.4,0,2.6,1.2,2.6,2.6S243.9,571.8,242.5,571.8z"/>
			</g>
		</g>
		<g>
			<path d="M316.2,552.8h-55.5c-1.4,0-2.6-1.2-2.6-2.6s1.2-2.6,2.6-2.6h55.5c1.4,0,2.6,1.2,2.6,2.6S317.7,552.8,316.2,552.8z"/>
		</g>
		<g>
			<path d="M316.2,587.2h-55.5c-1.4,0-2.6-1.2-2.6-2.6s1.2-2.6,2.6-2.6h55.5c1.4,0,2.6,1.2,2.6,2.6S317.7,587.2,316.2,587.2z"/>
		</g>
		<g>
			<path d="M348.4,621.6H215.4c-1.4,0-2.6-1.2-2.6-2.6s1.2-2.6,2.6-2.6h133.1c1.4,0,2.6,1.2,2.6,2.6S349.9,621.6,348.4,621.6z"/>
		</g>
		<g>
			<path d="M348.4,656H215.4c-1.4,0-2.6-1.2-2.6-2.6s1.2-2.6,2.6-2.6h133.1c1.4,0,2.6,1.2,2.6,2.6S349.9,656,348.4,656z"/>
		</g>
		<g>
			<path d="M348.4,690.3H215.4c-1.4,0-2.6-1.2-2.6-2.6s1.2-2.6,2.6-2.6h133.1c1.4,0,2.6,1.2,2.6,2.6S349.9,690.3,348.4,690.3z"/>
		</g>
		<g>
			<path d="M348.4,724.7H215.4c-1.4,0-2.6-1.2-2.6-2.6c0-1.4,1.2-2.6,2.6-2.6h133.1c1.4,0,2.6,1.2,2.6,2.6
				C351,723.6,349.9,724.7,348.4,724.7z"/>
		</g>
		<g>
			<path d="M348.4,759.1H215.4c-1.4,0-2.6-1.2-2.6-2.6s1.2-2.6,2.6-2.6h133.1c1.4,0,2.6,1.2,2.6,2.6S349.9,759.1,348.4,759.1z"/>
		</g>
		<g>
			<path d="M348.4,793.5H215.4c-1.4,0-2.6-1.2-2.6-2.6s1.2-2.6,2.6-2.6h133.1c1.4,0,2.6,1.2,2.6,2.6S349.9,793.5,348.4,793.5z"/>
		</g>
		<g>
			<path d="M348,587.2h-87.3c-1.4,0-2.6-1.2-2.6-2.6s1.2-2.6,2.6-2.6H348c1.4,0,2.6,1.2,2.6,2.6S349.5,587.2,348,587.2z"/>
		</g>
	</g>
</g>
</svg>
